<svg id="visual" viewBox="0 0 900 100" width="900" height="100" xmlns="http://www.w3.org/2000/svg" xmlns:xlink="http://www.w3.org/1999/xlink" version="1.1"><rect x="0" y="0" width="900" height="100" fill="#201E1f"></rect><path d="M0 68L21.5 69C43 70 86 72 128.8 69.8C171.7 67.7 214.3 61.3 257.2 61.5C300 61.7 343 68.3 385.8 70.2C428.7 72 471.3 69 514.2 69C557 69 600 72 642.8 73C685.7 74 728.3 73 771.2 70.2C814 67.3 857 62.7 878.5 60.3L900 58L900 0L878.5 0C857 0 814 0 771.2 0C728.3 0 685.7 0 642.8 0C600 0 557 0 514.2 0C471.3 0 428.7 0 385.8 0C343 0 300 0 257.2 0C214.3 0 171.7 0 128.8 0C86 0 43 0 21.5 0L0 0Z" fill="#fa7268"></path><path d="M0 48L21.5 46.5C43 45 86 42 128.8 44.3C171.7 46.7 214.3 54.3 257.2 56C300 57.7 343 53.3 385.8 52.5C428.7 51.7 471.3 54.3 514.2 55.2C557 56 600 55 642.8 53.5C685.7 52 728.3 50 771.2 48C814 46 857 44 878.5 43L900 42L900 0L878.5 0C857 0 814 0 771.2 0C728.3 0 685.7 0 642.8 0C600 0 557 0 514.2 0C471.3 0 428.7 0 385.8 0C343 0 300 0 257.2 0C214.3 0 171.7 0 128.8 0C86 0 43 0 21.5 0L0 0Z" fill="#eb5967"></path><path d="M0 45L21.5 42.8C43 40.7 86 36.3 128.8 34.8C171.7 33.3 214.3 34.7 257.2 35.5C300 36.3 343 36.7 385.8 35.7C428.7 34.7 471.3 32.3 514.2 31.7C557 31 600 32 642.8 32.8C685.7 33.7 728.3 34.3 771.2 33.7C814 33 857 31 878.5 30L900 29L900 0L878.5 0C857 0 814 0 771.2 0C728.3 0 685.7 0 642.8 0C600 0 557 0 514.2 0C471.3 0 428.7 0 385.8 0C343 0 300 0 257.2 0C214.3 0 171.7 0 128.8 0C86 0 43 0 21.5 0L0 0Z" fill="#da3f67"></path><path d="M0 26L21.5 26.3C43 26.7 86 27.3 128.8 26.7C171.7 26 214.3 24 257.2 20.8C300 17.7 343 13.3 385.8 12.2C428.7 11 471.3 13 514.2 16.2C557 19.3 600 23.7 642.8 25.7C685.7 27.7 728.3 27.3 771.2 24.2C814 21 857 15 878.5 12L900 9L900 0L878.5 0C857 0 814 0 771.2 0C728.3 0 685.7 0 642.8 0C600 0 557 0 514.2 0C471.3 0 428.7 0 385.8 0C343 0 300 0 257.2 0C214.3 0 171.7 0 128.8 0C86 0 43 0 21.5 0L0 0Z" fill="#c62368"></path></svg>