<?xml version="1.0" encoding="UTF-8"?>
<svg width="162px" height="107px" viewBox="0 0 162 107" version="1.1" xmlns="http://www.w3.org/2000/svg" xmlns:xlink="http://www.w3.org/1999/xlink">
    <!-- Generator: Sketch 52.5 (67469) - http://www.bohemiancoding.com/sketch -->
    <title>white logo</title>
    <desc>Created with Sketch.</desc>
    <g id="Symbols" stroke="none" stroke-width="1" fill="none" fill-rule="evenodd">
        <g id="Global/HomeLogo" transform="translate(-18.000000, -21.000000)">
            <g id="Logo">
                <g id="Global/white-logo" transform="translate(28.000000, 31.000000)">
                    <path d="M66.658794,30.7941552 C68.8805417,32.2645433 72.9626014,32.1988716 74.2981427,32.0944537 L78.3277252,31.7273493 L81.2001885,30.7094388 C82.800083,29.8885433 84.3068307,28.4555881 85.1740142,26.8538567 C87.3078628,22.2542149 87.7440784,14.7597672 84.4583583,10.9232299 C83.5544408,9.83045373 82.3310693,8.20836418 81.012583,8.20836418 C79.6468674,8.20836418 75.6448353,11.3658567 73.1600463,15.3534388 C70.5001151,19.9202448 68.106505,26.3225731 66.5551518,31.4915881 C65.622372,34.1972597 64.9119638,36.3460358 64.1667894,38.4002448 C61.0575234,46.991409 54.3004454,57.7628716 44.4701794,59.2142149 C38.5763491,60.6471701 32.1531564,59.8991701 28.5191197,55.0151701 C25.6381289,51.8865731 24.3990142,46.0706925 26.2514546,41.9760657 C27.7142528,38.7463343 31.5326151,35.970394 35.6842069,35.7733791 C38.9915739,35.6170806 41.5373674,38.0896179 41.8915876,39.6650806 C42.1907069,40.9936179 41.9847344,41.8696776 41.7584271,42.9256776 C41.1942986,43.9252 40.5252161,44.8294985 39.0466748,44.5464537 C38.5199362,44.1130209 38.3506977,43.5758269 38.5009133,42.878394 C39.3956472,42.2019761 41.3451702,42.8659164 41.3825601,41.6437672 C41.4429087,39.6519463 40.597372,38.1093194 38.6701518,37.3074687 C36.2824454,36.3138567 33.0675693,36.7729015 30.9586472,38.1868119 C27.3429775,40.5437672 26.4016702,44.0033493 27.0228674,48.0375582 C27.9838537,52.0527224 30.9120739,56.6884836 35.2427436,57.5750507 C42.0221243,59.3094388 48.1422619,55.4249612 52.2289133,49.7883642 C62.7171106,36.2330806 61.8131931,16.1927224 78.8177298,7.08669254 C79.0341977,6.55869254 80.495028,6.46478209 79.5327298,5.9932597 C73.6592344,2.33600597 64.8463674,1.33188657 57.9554729,5.35099104 C55.6746885,6.68084179 55.4418216,8.03236418 54.737317,9.94800597 L54.6041564,11.7533194 L55.2292894,13.8613791 C56.0479317,15.021797 57.0115417,16.4751104 58.5563353,16.4948119 C59.3093812,16.5887224 59.9312344,16.4179761 60.3635142,15.7783343 C60.7033032,14.7978567 58.8574225,13.2138567 60.5524317,12.5164239 C61.512106,12.082991 61.9929271,12.7797672 62.0021106,13.5914687 C62.2658078,14.9298567 61.7003674,16.0797672 60.5524317,16.6826328 C59.1204638,17.4739761 57.0023583,17.4470507 55.844583,16.4948119 C53.8484867,14.4767224 52.4066794,12.1755881 53.1794041,9.29128955 C54.7799546,5.18090149 59.598005,2.48705075 63.9798399,2.01552836 C70.3728583,1.32663284 76.5959821,2.56191642 81.88895,5.27743881 C91.2462665,1.26161791 105.426881,-0.359814925 114.069854,6.35117015 C119.587161,10.2921254 122.520629,16.7069313 121.112932,23.5446627 C120.558643,26.2372 119.21195,29.1254388 116.405083,30.4257373 C113.919638,31.6137373 110.191143,31.4252597 107.912982,29.8793493 C106.16156,28.428006 104.757143,26.1111104 105.746991,23.733797 C106.394427,22.1786925 107.51678,21.207409 109.004505,21.3768418 C108.877248,21.2796478 110.293473,21.2921254 110.624078,22.1123642 C110.859569,22.536603 111.047831,22.8662746 110.45484,23.5446627 C109.720161,23.9787522 108.891679,23.583409 108.270482,23.1867522 C108.157656,22.8662746 107.7995,23.073797 107.554826,23.0173194 C106.767014,23.4047821 106.674523,23.9603642 106.558418,25.2435881 C106.449528,26.4473493 107.977267,29.7473493 109.908422,29.8793493 C113.774014,30.1453194 116.269955,28.4214388 117.95578,26.3692 C119.883,24.0227522 120.376285,22.228603 120.333647,19.5787522 C120.323152,18.8977373 120.357918,19.0908119 119.731473,16.7653791 C119.213262,14.8425134 116.88984,10.6900955 114.774358,9.04764776 C112.289569,7.11887164 109.255739,5.18221493 107.279978,4.53863284 C104.740088,3.71248358 103.218909,3.45833433 100.418601,3.29875224 L96.8009638,3.29875224 C96.8009638,3.29875224 87.9789133,3.87272239 84.552161,5.72991642 L83.6961289,6.35117015 C88.8552803,10.7255582 91.8681197,16.8527224 90.7392069,23.9216179 C89.8149546,28.8988716 84.392106,32.1791701 79.8915417,33.140603 C75.1659821,33.9523045 70.4909317,32.6835284 66.3104775,31.6078269 L66.498739,31.6078269 L66.658794,30.7941552 Z" id="Fill-1" fill="#FEFEFE" fill-rule="evenodd"></path>
                    <path d="M66.658794,30.7941552 C68.8805417,32.2645433 72.9626014,32.1988716 74.2981427,32.0944537 L78.3277252,31.7273493 L81.2001885,30.7094388 C82.800083,29.8885433 84.3068307,28.4555881 85.1740142,26.8538567 C87.3078628,22.2542149 87.7440784,14.7597672 84.4583583,10.9232299 C83.5544408,9.83045373 82.3310693,8.20836418 81.012583,8.20836418 C79.6468674,8.20836418 75.6448353,11.3658567 73.1600463,15.3534388 C70.5001151,19.9202448 68.106505,26.3225731 66.5551518,31.4915881 C65.622372,34.1972597 64.9119638,36.3460358 64.1667894,38.4002448 C61.0575234,46.991409 54.3004454,57.7628716 44.4701794,59.2142149 C38.5763491,60.6471701 32.1531564,59.8991701 28.5191197,55.0151701 C25.6381289,51.8865731 24.3990142,46.0706925 26.2514546,41.9760657 C27.7142528,38.7463343 31.5326151,35.970394 35.6842069,35.7733791 C38.9915739,35.6170806 41.5373674,38.0896179 41.8915876,39.6650806 C42.1907069,40.9936179 41.9847344,41.8696776 41.7584271,42.9256776 C41.1942986,43.9252 40.5252161,44.8294985 39.0466748,44.5464537 C38.5199362,44.1130209 38.3506977,43.5758269 38.5009133,42.878394 C39.3956472,42.2019761 41.3451702,42.8659164 41.3825601,41.6437672 C41.4429087,39.6519463 40.597372,38.1093194 38.6701518,37.3074687 C36.2824454,36.3138567 33.0675693,36.7729015 30.9586472,38.1868119 C27.3429775,40.5437672 26.4016702,44.0033493 27.0228674,48.0375582 C27.9838537,52.0527224 30.9120739,56.6884836 35.2427436,57.5750507 C42.0221243,59.3094388 48.1422619,55.4249612 52.2289133,49.7883642 C62.7171106,36.2330806 61.8131931,16.1927224 78.8177298,7.08669254 C79.0341977,6.55869254 80.495028,6.46478209 79.5327298,5.9932597 C73.6592344,2.33600597 64.8463674,1.33188657 57.9554729,5.35099104 C55.6746885,6.68084179 55.4418216,8.03236418 54.737317,9.94800597 L54.6041564,11.7533194 L55.2292894,13.8613791 C56.0479317,15.021797 57.0115417,16.4751104 58.5563353,16.4948119 C59.3093812,16.5887224 59.9312344,16.4179761 60.3635142,15.7783343 C60.7033032,14.7978567 58.8574225,13.2138567 60.5524317,12.5164239 C61.512106,12.082991 61.9929271,12.7797672 62.0021106,13.5914687 C62.2658078,14.9298567 61.7003674,16.0797672 60.5524317,16.6826328 C59.1204638,17.4739761 57.0023583,17.4470507 55.844583,16.4948119 C53.8484867,14.4767224 52.4066794,12.1755881 53.1794041,9.29128955 C54.7799546,5.18090149 59.598005,2.48705075 63.9798399,2.01552836 C70.3728583,1.32663284 76.5959821,2.56191642 81.88895,5.27743881 C91.2462665,1.26161791 105.426881,-0.359814925 114.069854,6.35117015 C119.587161,10.2921254 122.520629,16.7069313 121.112932,23.5446627 C120.558643,26.2372 119.21195,29.1254388 116.405083,30.4257373 C113.919638,31.6137373 110.191143,31.4252597 107.912982,29.8793493 C106.16156,28.428006 104.757143,26.1111104 105.746991,23.733797 C106.394427,22.1786925 107.51678,21.207409 109.004505,21.3768418 C108.877248,21.2796478 110.293473,21.2921254 110.624078,22.1123642 C110.859569,22.536603 111.047831,22.8662746 110.45484,23.5446627 C109.720161,23.9787522 108.891679,23.583409 108.270482,23.1867522 C108.157656,22.8662746 107.7995,23.073797 107.554826,23.0173194 C106.767014,23.4047821 106.674523,23.9603642 106.558418,25.2435881 C106.449528,26.4473493 107.977267,29.7473493 109.908422,29.8793493 C113.774014,30.1453194 116.269955,28.4214388 117.95578,26.3692 C119.883,24.0227522 120.376285,22.228603 120.333647,19.5787522 C120.323152,18.8977373 120.357918,19.0908119 119.731473,16.7653791 C119.213262,14.8425134 116.88984,10.6900955 114.774358,9.04764776 C112.289569,7.11887164 109.255739,5.18221493 107.279978,4.53863284 C104.740088,3.71248358 103.218909,3.45833433 100.418601,3.29875224 L96.8009638,3.29875224 C96.8009638,3.29875224 87.9789133,3.87272239 84.552161,5.72991642 L83.6961289,6.35117015 C88.8552803,10.7255582 91.8681197,16.8527224 90.7392069,23.9216179 C89.8149546,28.8988716 84.392106,32.1791701 79.8915417,33.140603 C75.1659821,33.9523045 70.4909317,32.6835284 66.3104775,31.6078269 L66.498739,31.6078269 L66.658794,30.7941552 Z" id="Stroke-3" stroke="#FEFEFE" stroke-width="0.44"></path>
                    <path d="M49.0745826,27.2271343 L49.4038761,26.8035522 C50.9106239,25.9550746 52.3688303,26.144209 54.2245505,24.9371642 C56.1032294,23.9960896 57.8762982,22.4212836 57.6519587,20.0544776 C57.539133,19.5822985 57.3882615,18.9603881 56.9363028,18.7909552 C53.2996422,17.7507164 50.6528303,20.2869552 48.5097982,22.7312537 C46.6737569,24.9660597 46.3536468,29.5565075 43.1899358,31.6291045 C42.5680826,31.9692836 41.9842752,32.9596119 41.1184037,31.9410448 L41.1367706,31.4038507 L41.2135183,30.9132836 C43.472,27.3499403 47.708867,23.4661194 44.9977706,18.9603881 C43.5310367,18.1296418 42.2151743,19.7497612 41.023945,18.9603881 C42.1535138,15.8127463 43.8682018,12.8903582 44.9977706,9.7420597 C45.223422,9.36510448 45.4300505,8.53501493 44.8278761,8.2900597 C43.9055917,8.13901493 43.1899358,8.44176119 42.6631972,9.19567164 L34.5266284,26.5572836 L32.3429266,31.0833731 C32.1362982,31.7046269 31.9283578,32.7606269 32.531844,33.2695821 C33.2848899,33.7443881 33.7270092,33.4495224 34.3855963,32.987194 C36.7962615,28.7080299 37.9166468,23.5797313 41.7586239,20.0544776 C42.417867,19.7707761 43.8012936,19.4502985 43.9239587,20.4123881 C43.2463486,23.8818209 39.8937202,26.2565075 39.0468716,29.6497612 C38.7831743,30.9132836 38.5949128,32.6102388 39.950789,33.4403284 C42.3240642,34.3827164 43.7730872,32.0060597 45.5435321,30.9132836 C45.9764679,31.1963284 46.0328807,31.6291045 46.277555,31.9883284 C47.2011514,33.8172836 49.0273532,34.2316716 50.9670367,33.9867164 C55.3737982,33.3451045 57.2380459,28.4624179 58.933055,25.1249851 C57.2190229,27.3223582 56.3151055,29.7824179 53.8670505,31.6291045 C52.5485642,32.308806 51.2491009,33.5342388 49.7056193,33.0817612 C48.1044128,31.8937612 48.5570275,29.4238507 48.9899633,27.8405075 C49.0503119,27.3361493 49.1808486,26.6131045 49.4038761,26.3320299 L49.9214312,25.0126866 C50.1096927,24.3993134 50.5341009,23.5987761 51.0142661,22.9394328 C51.3061697,22.3070149 53.5187339,19.0556119 55.8920092,19.5074328 C56.4561376,19.7149552 56.3052661,20.4498209 56.0796147,20.7702985 C54.8181972,22.8251642 52.3694862,24.428209 50.0919817,24.7480299 L49.0745826,27.2271343 Z" id="Fill-5" fill="#FEFEFE" fill-rule="evenodd"></path>
                    <path d="M49.0745826,27.2271343 L49.4038761,26.8035522 C50.9106239,25.9550746 52.3688303,26.144209 54.2245505,24.9371642 C56.1032294,23.9960896 57.8762982,22.4212836 57.6519587,20.0544776 C57.539133,19.5822985 57.3882615,18.9603881 56.9363028,18.7909552 C53.2996422,17.7507164 50.6528303,20.2869552 48.5097982,22.7312537 C46.6737569,24.9660597 46.3536468,29.5565075 43.1899358,31.6291045 C42.5680826,31.9692836 41.9842752,32.9596119 41.1184037,31.9410448 L41.1367706,31.4038507 L41.2135183,30.9132836 C43.472,27.3499403 47.708867,23.4661194 44.9977706,18.9603881 C43.5310367,18.1296418 42.2151743,19.7497612 41.023945,18.9603881 C42.1535138,15.8127463 43.8682018,12.8903582 44.9977706,9.7420597 C45.223422,9.36510448 45.4300505,8.53501493 44.8278761,8.2900597 C43.9055917,8.13901493 43.1899358,8.44176119 42.6631972,9.19567164 L34.5266284,26.5572836 L32.3429266,31.0833731 C32.1362982,31.7046269 31.9283578,32.7606269 32.531844,33.2695821 C33.2848899,33.7443881 33.7270092,33.4495224 34.3855963,32.987194 C36.7962615,28.7080299 37.9166468,23.5797313 41.7586239,20.0544776 C42.417867,19.7707761 43.8012936,19.4502985 43.9239587,20.4123881 C43.2463486,23.8818209 39.8937202,26.2565075 39.0468716,29.6497612 C38.7831743,30.9132836 38.5949128,32.6102388 39.950789,33.4403284 C42.3240642,34.3827164 43.7730872,32.0060597 45.5435321,30.9132836 C45.9764679,31.1963284 46.0328807,31.6291045 46.277555,31.9883284 C47.2011514,33.8172836 49.0273532,34.2316716 50.9670367,33.9867164 C55.3737982,33.3451045 57.2380459,28.4624179 58.933055,25.1249851 C57.2190229,27.3223582 56.3151055,29.7824179 53.8670505,31.6291045 C52.5485642,32.308806 51.2491009,33.5342388 49.7056193,33.0817612 C48.1044128,31.8937612 48.5570275,29.4238507 48.9899633,27.8405075 C49.0503119,27.3361493 49.1808486,26.6131045 49.4038761,26.3320299 L49.9214312,25.0126866 C50.1096927,24.3993134 50.5341009,23.5987761 51.0142661,22.9394328 C51.3061697,22.3070149 53.5187339,19.0556119 55.8920092,19.5074328 C56.4561376,19.7149552 56.3052661,20.4498209 56.0796147,20.7702985 C54.8181972,22.8251642 52.3694862,24.428209 50.0919817,24.7480299 L49.0745826,27.2271343 Z" id="Stroke-7" stroke="#FEFEFE" stroke-width="0.443"></path>
                    <path d="M94.5513376,37.7852299 C92.2580899,40.242006 91.6814982,43.366006 90.2390349,46.2982448 C89.825122,46.9004537 90.182622,47.6175881 90.5971908,48.1061851 C91.8218743,48.201409 92.668067,47.3719761 93.4965486,46.4670209 C95.6631954,43.3561552 97.7714615,40.2262448 97.6592917,36.154603 C97.4703743,35.8341254 97.3385257,35.7579463 96.9239569,35.7966925 C96.1302413,36.2662448 95.133833,37.2079761 94.5513376,37.8318567 L94.9750899,34.8628418 C95.5392183,35.107797 96.3034156,34.1365134 96.9239569,33.9867821 C98.3559248,33.6479164 99.4848376,34.4011701 100.182783,35.4387821 C101.462567,41.2257672 97.3575486,47.2780657 92.0475257,49.1812299 C90.6345807,49.3335881 89.2229477,49.1431403 88.6194615,47.7489313 C88.1491358,47.2596776 88.1681587,46.0900657 87.1691266,46.2982448 C85.588255,47.7673194 83.7417183,49.6914985 81.5580165,48.6538866 C81.0319339,48.0313194 81.2195394,46.7868418 80.297255,46.6554985 C78.7340945,48.0129313 77.151911,49.9180657 74.8724385,49.011797 C73.5362413,48.333409 73.4325991,45.5909612 72.7071037,45.7505433 C71.0790028,47.7594388 69.1458789,50.3954985 66.0221817,48.8246328 C63.8194569,47.5400955 63.781411,44.6952 64.2150028,42.4879761 C65.4764202,38.6146627 69.072411,34.6277373 73.2528651,33.7983045 C74.5929982,33.5927522 75.0803789,34.0898866 75.4195119,34.5331701 C76.1915807,35.5320358 75.5513606,36.8520358 75.0607,37.7950806 C73.4234156,40.1323343 70.6926404,41.0005134 68.1691495,41.5836776 L68.375778,41.6027224 L68.7555807,40.5677373 L69.7834752,40.3326328 C71.7730119,39.5458866 74.0255899,37.6624239 74.3266771,35.6082149 C74.2322183,35.230603 73.8747183,34.9482149 73.4234156,35.0802149 C71.2193789,36.0035582 69.4922275,38.5752597 68.4702367,40.5651104 C67.641755,42.5832 65.711911,46.4394388 67.6889844,47.9938866 C69.9015486,48.6538866 71.3518835,45.6566328 72.8776541,43.9406328 C74.7792917,39.868991 78.0558284,34.9482149 82.8194339,33.9867821 C84.5419936,33.7129313 84.8247138,35.1268418 85.1736862,35.4387821 L83.4878606,38.8221851 L83.5541128,38.8694687 C83.7607413,37.9080358 84.4009615,35.6922746 83.3665073,35.6082149 C80.8226817,35.2680358 79.6176771,38.8313791 78.3005028,40.6793791 C77.0968101,43.2399164 75.6930486,47.4757373 76.3234294,47.9190209 C77.5750073,48.2762746 78.5071312,47.1467224 79.3933376,46.2982448 C81.1244248,43.9596776 82.3202459,41.6506627 83.2995991,39.0106627 L85.0411817,35.5234985 C85.6440119,34.825409 86.4541266,34.1943045 87.3396771,34.174603 C87.8290257,34.2882149 88.3570761,34.7498866 88.2435945,35.0802149 C87.0759798,39.2083343 83.4137367,45.3538866 83.6485716,47.2491701 C84.1195532,47.946603 84.570856,47.5223642 85.1736862,47.2032 C88.4882688,43.7140657 89.4669661,39.2648119 91.5011083,35.2496478 L96.0206954,25.1250507 C96.5480899,24.3711403 97.4133055,23.9377075 98.1860303,24.3901851 C98.7888606,24.899797 98.5822321,25.9544836 98.3736358,26.5573493 C97.0184156,29.1034388 95.7379752,31.7611701 94.9278606,34.5331701 C94.9278606,34.5331701 94.9278606,33.8265433 94.9278606,34.5331701 C94.9278606,35.239797 94.5513376,37.7852299 94.5513376,37.7852299" id="Fill-9" fill="#FEFEFE" fill-rule="evenodd"></path>
                    <path d="M94.5513376,37.7852299 C92.2580899,40.242006 91.6814982,43.366006 90.2390349,46.2982448 C89.825122,46.9004537 90.182622,47.6175881 90.5971908,48.1061851 C91.8218743,48.201409 92.668067,47.3719761 93.4965486,46.4670209 C95.6631954,43.3561552 97.7714615,40.2262448 97.6592917,36.154603 C97.4703743,35.8341254 97.3385257,35.7579463 96.9239569,35.7966925 C96.1302413,36.2662448 95.133833,37.2079761 94.5513376,37.8318567 L94.9750899,34.8628418 C95.5392183,35.107797 96.3034156,34.1365134 96.9239569,33.9867821 C98.3559248,33.6479164 99.4848376,34.4011701 100.182783,35.4387821 C101.462567,41.2257672 97.3575486,47.2780657 92.0475257,49.1812299 C90.6345807,49.3335881 89.2229477,49.1431403 88.6194615,47.7489313 C88.1491358,47.2596776 88.1681587,46.0900657 87.1691266,46.2982448 C85.588255,47.7673194 83.7417183,49.6914985 81.5580165,48.6538866 C81.0319339,48.0313194 81.2195394,46.7868418 80.297255,46.6554985 C78.7340945,48.0129313 77.151911,49.9180657 74.8724385,49.011797 C73.5362413,48.333409 73.4325991,45.5909612 72.7071037,45.7505433 C71.0790028,47.7594388 69.1458789,50.3954985 66.0221817,48.8246328 C63.8194569,47.5400955 63.781411,44.6952 64.2150028,42.4879761 C65.4764202,38.6146627 69.072411,34.6277373 73.2528651,33.7983045 C74.5929982,33.5927522 75.0803789,34.0898866 75.4195119,34.5331701 C76.1915807,35.5320358 75.5513606,36.8520358 75.0607,37.7950806 C73.4234156,40.1323343 70.6926404,41.0005134 68.1691495,41.5836776 L68.375778,41.6027224 L68.7555807,40.5677373 L69.7834752,40.3326328 C71.7730119,39.5458866 74.0255899,37.6624239 74.3266771,35.6082149 C74.2322183,35.230603 73.8747183,34.9482149 73.4234156,35.0802149 C71.2193789,36.0035582 69.4922275,38.5752597 68.4702367,40.5651104 C67.641755,42.5832 65.711911,46.4394388 67.6889844,47.9938866 C69.9015486,48.6538866 71.3518835,45.6566328 72.8776541,43.9406328 C74.7792917,39.868991 78.0558284,34.9482149 82.8194339,33.9867821 C84.5419936,33.7129313 84.8247138,35.1268418 85.1736862,35.4387821 L83.4878606,38.8221851 L83.5541128,38.8694687 C83.7607413,37.9080358 84.4009615,35.6922746 83.3665073,35.6082149 C80.8226817,35.2680358 79.6176771,38.8313791 78.3005028,40.6793791 C77.0968101,43.2399164 75.6930486,47.4757373 76.3234294,47.9190209 C77.5750073,48.2762746 78.5071312,47.1467224 79.3933376,46.2982448 C81.1244248,43.9596776 82.3202459,41.6506627 83.2995991,39.0106627 L85.0411817,35.5234985 C85.6440119,34.825409 86.4541266,34.1943045 87.3396771,34.174603 C87.8290257,34.2882149 88.3570761,34.7498866 88.2435945,35.0802149 C87.0759798,39.2083343 83.4137367,45.3538866 83.6485716,47.2491701 C84.1195532,47.946603 84.570856,47.5223642 85.1736862,47.2032 C88.4882688,43.7140657 89.4669661,39.2648119 91.5011083,35.2496478 L96.0206954,25.1250507 C96.5480899,24.3711403 97.4133055,23.9377075 98.1860303,24.3901851 C98.7888606,24.899797 98.5822321,25.9544836 98.3736358,26.5573493 C97.0184156,29.1034388 95.7379752,31.7611701 94.9278606,34.5331701 C94.9278606,34.5331701 94.9278606,33.8265433 94.9278606,34.5331701 C94.9278606,35.239797 94.5513376,37.7852299 94.5513376,37.7852299 Z" id="Stroke-11" stroke="#FEFEFE" stroke-width="0.443"></path>
                    <path d="M109.174662,33.6095642 L108.344868,35.8529075 C107.347804,37.5117731 105.756437,39.0767284 106.510139,41.2261612 C106.77318,41.923594 107.507859,42.2631164 108.129056,42.4883701 C108.656451,42.4325493 109.013951,41.9610269 109.409497,41.5840716 C110.219611,39.9626388 107.300575,39.2080716 108.504923,37.4178627 C109.013951,36.7013851 109.74863,35.7399522 110.670914,35.6079522 C111.31179,35.5324299 111.894286,35.8345194 112.121249,36.5135642 C111.942171,40.6883104 108.901125,45.3739821 105.059804,47.9187582 C103.986648,48.2970269 103.326749,47.4754746 103.251313,46.6552358 C103.556992,42.6912955 106.55868,36.1379224 108.335685,35.6079522 L108.157263,35.617803 L108.910965,33.637803 C106.45307,33.8827582 104.296263,36.2876537 102.177501,39.0583403 C100.59663,41.6405493 99.3732583,45.7135045 101.443478,48.4664597 C102.347396,49.3333254 103.571423,49.4653254 104.890566,49.3694448 C108.656451,47.9936239 111.329501,43.9403701 112.837561,40.5090269 C113.401689,38.8981015 113.824786,36.7762507 111.932332,34.7023403 L110.624341,33.8545194 L109.174662,33.6095642 Z" id="Fill-13" fill="#FEFEFE" fill-rule="evenodd"></path>
                    <path d="M109.174662,33.6095642 L108.344868,35.8529075 C107.347804,37.5117731 105.756437,39.0767284 106.510139,41.2261612 C106.77318,41.923594 107.507859,42.2631164 108.129056,42.4883701 C108.656451,42.4325493 109.013951,41.9610269 109.409497,41.5840716 C110.219611,39.9626388 107.300575,39.2080716 108.504923,37.4178627 C109.013951,36.7013851 109.74863,35.7399522 110.670914,35.6079522 C111.31179,35.5324299 111.894286,35.8345194 112.121249,36.5135642 C111.942171,40.6883104 108.901125,45.3739821 105.059804,47.9187582 C103.986648,48.2970269 103.326749,47.4754746 103.251313,46.6552358 C103.556992,42.6912955 106.55868,36.1379224 108.335685,35.6079522 L108.157263,35.617803 L108.910965,33.637803 C106.45307,33.8827582 104.296263,36.2876537 102.177501,39.0583403 C100.59663,41.6405493 99.3732583,45.7135045 101.443478,48.4664597 C102.347396,49.3333254 103.571423,49.4653254 104.890566,49.3694448 C108.656451,47.9936239 111.329501,43.9403701 112.837561,40.5090269 C113.401689,38.8981015 113.824786,36.7762507 111.932332,34.7023403 L110.624341,33.8545194 L109.174662,33.6095642 Z" id="Stroke-15" stroke="#FEFEFE" stroke-width="0.443"></path>
                    <path d="M119.643836,45.6568299 C118.908501,46.4737851 118.14496,47.2506806 117.167575,47.7491284 C116.753006,47.7103821 116.169855,48.2580836 115.906157,47.559994 C116.020295,43.6958746 118.222364,40.6795761 120.257162,37.6061433 C121.424121,36.7011881 122.026295,35.0042328 123.68457,35.7962328 C124.380547,37.8701433 123.306079,40.0944418 122.421185,41.9417851 C121.613694,43.1724716 120.758974,44.5476358 119.710744,45.7146209 L120.377859,46.9663224 L121.82885,48.9653672 C123.193254,49.737009 124.568153,48.4275164 125.679355,47.559994 C127.073277,46.2780836 127.054254,48.7289493 128.013928,49.1807701 C129.540355,50.0673373 131.08318,48.8241731 132.534171,48.4662627 C132.70341,49.1065612 132.364933,49.9924716 132.006777,50.6321134 C128.76763,55.6303821 124.926309,64.3588 117.357148,62.9435761 C116.150176,62.3413672 115.001584,61.0785015 114.456478,59.8721134 C114.268217,58.5882328 113.947451,56.7986806 115.190501,55.8930687 C116.301703,54.6118149 116.810075,56.9681134 118.072148,56.4210687 C118.354212,56.1373672 118.815355,55.959397 118.806827,55.5167701 C118.86324,54.9697254 118.711712,54.4036358 118.072148,54.0838149 C116.734639,53.6326507 115.267249,54.0076358 114.285928,54.9874567 C112.950387,56.4020239 112.987121,58.8331881 113.552561,60.5872776 C114.32463,62.9823224 116.848121,64.1887104 119.164327,64.3955761 C133.230804,62.9074567 135.490598,47.3156955 140.857689,37.6061433 C141.029552,37.171397 141.526772,34.5596358 139.596272,35.4383224 C135.490598,39.0765313 136.327607,45.9195164 130.368836,48.1057254 C129.926717,48.0413672 129.313391,47.8049493 129.463607,47.2027403 C129.313391,46.9564716 131.893295,41.0742627 133.437433,38.1525313 C133.663084,36.9835761 135.103579,35.2682328 133.815267,34.5333672 C132.9389,33.8543224 132.213405,34.6410687 131.819171,35.0804119 C129.313391,39.1146209 128.259258,43.7516955 124.775437,47.3715164 C124.775437,47.3715164 124.182446,48.2298448 123.542226,47.9369493 C122.440208,47.9001731 129.222868,33.197606 132.364933,26.030203 C132.646341,25.5586806 132.845098,24.710203 132.175359,24.3897254 C131.386235,23.9379045 130.518396,24.3713373 130.011992,25.124591 L126.206749,33.9863224 C125.641965,36.8141433 124.19163,33.6658448 122.779341,34.1748 C118.240731,34.8348 114.588327,39.529009 113.193749,43.5822627 C112.950387,45.4493075 112.667011,47.7675164 114.456478,49.0113373 C116.678226,49.9734269 118.693345,48.1444716 120.208621,46.9282328 L120.020359,46.3161731 L119.643836,45.6568299 Z" id="Fill-17" fill="#FEFEFE" fill-rule="evenodd"></path>
                    <path d="M119.643836,45.6568299 C118.908501,46.4737851 118.14496,47.2506806 117.167575,47.7491284 C116.753006,47.7103821 116.169855,48.2580836 115.906157,47.559994 C116.020295,43.6958746 118.222364,40.6795761 120.257162,37.6061433 C121.424121,36.7011881 122.026295,35.0042328 123.68457,35.7962328 C124.380547,37.8701433 123.306079,40.0944418 122.421185,41.9417851 C121.613694,43.1724716 120.758974,44.5476358 119.710744,45.7146209 L120.377859,46.9663224 L121.82885,48.9653672 C123.193254,49.737009 124.568153,48.4275164 125.679355,47.559994 C127.073277,46.2780836 127.054254,48.7289493 128.013928,49.1807701 C129.540355,50.0673373 131.08318,48.8241731 132.534171,48.4662627 C132.70341,49.1065612 132.364933,49.9924716 132.006777,50.6321134 C128.76763,55.6303821 124.926309,64.3588 117.357148,62.9435761 C116.150176,62.3413672 115.001584,61.0785015 114.456478,59.8721134 C114.268217,58.5882328 113.947451,56.7986806 115.190501,55.8930687 C116.301703,54.6118149 116.810075,56.9681134 118.072148,56.4210687 C118.354212,56.1373672 118.815355,55.959397 118.806827,55.5167701 C118.86324,54.9697254 118.711712,54.4036358 118.072148,54.0838149 C116.734639,53.6326507 115.267249,54.0076358 114.285928,54.9874567 C112.950387,56.4020239 112.987121,58.8331881 113.552561,60.5872776 C114.32463,62.9823224 116.848121,64.1887104 119.164327,64.3955761 C133.230804,62.9074567 135.490598,47.3156955 140.857689,37.6061433 C141.029552,37.171397 141.526772,34.5596358 139.596272,35.4383224 C135.490598,39.0765313 136.327607,45.9195164 130.368836,48.1057254 C129.926717,48.0413672 129.313391,47.8049493 129.463607,47.2027403 C129.313391,46.9564716 131.893295,41.0742627 133.437433,38.1525313 C133.663084,36.9835761 135.103579,35.2682328 133.815267,34.5333672 C132.9389,33.8543224 132.213405,34.6410687 131.819171,35.0804119 C129.313391,39.1146209 128.259258,43.7516955 124.775437,47.3715164 C124.775437,47.3715164 124.182446,48.2298448 123.542226,47.9369493 C122.440208,47.9001731 129.222868,33.197606 132.364933,26.030203 C132.646341,25.5586806 132.845098,24.710203 132.175359,24.3897254 C131.386235,23.9379045 130.518396,24.3713373 130.011992,25.124591 L126.206749,33.9863224 C125.641965,36.8141433 124.19163,33.6658448 122.779341,34.1748 C118.240731,34.8348 114.588327,39.529009 113.193749,43.5822627 C112.950387,45.4493075 112.667011,47.7675164 114.456478,49.0113373 C116.678226,49.9734269 118.693345,48.1444716 120.208621,46.9282328 L120.020359,46.3161731 L119.643836,45.6568299 Z" id="Stroke-19" stroke="#FEFEFE" stroke-width="0.443"></path>
                    <path d="M42.0120881,4.74549851 C44.837978,5.16973731 48.7685101,5.46985672 49.752455,3.03015522 C49.752455,3.03015522 49.752455,2.32287164 48.9239734,2.03128955 C46.8799917,1.47505075 43.6690514,2.80424478 42.0120881,4.74549851 L41.1652394,5.45278209 C32.4848771,14.8418567 34.8942303,29.3861552 22.8054826,36.8904537 C17.739478,39.8121851 10.088322,39.8522448 5.46181284,36.1542746 C0.237065138,31.9788716 -0.553370642,26.5038269 0.61686789,22.2529015 C1.39352844,19.4283642 3.61986789,17.1462746 6.36507431,16.6044836 C8.60059725,16.1631701 10.9135239,16.8395881 12.0804826,17.7445433 C13.7190789,19.1584537 14.9522899,20.8271701 14.3120697,22.9391701 C13.9165239,23.8822149 13.2572807,24.5415582 12.3159734,24.9369015 C11.5629275,25.1634687 10.9607532,24.6354687 10.697056,24.0319463 C10.6216202,23.4481254 10.9417303,22.7316478 11.6003174,22.7684239 C12.1841248,23.1841254 12.8623908,22.7684239 13.4081523,22.5812597 C14.0109826,22.0900358 13.8036982,21.0156478 13.5964138,20.4121254 C12.5232578,18.678394 10.946322,17.4969612 8.87413394,17.4214388 C6.30341376,17.3288418 3.71039083,18.1497373 2.20364312,20.6012597 C0.809721101,23.0133791 1.14426239,26.3068119 1.8500789,29.0781552 C2.83402385,32.9383343 6.44051009,36.9088418 10.5087945,37.417797 C15.6686018,38.944006 19.3026385,35.305797 22.4473266,31.8186328 C27.0423495,26.1255582 29.376267,19.5078269 32.3897624,13.1731403 C33.7266156,10.0813194 36.2310835,7.4610209 38.7178404,4.84006567 C34.9696661,1.82311045 30.2296752,1.02257313 25.032478,1.13552836 C20.7765881,1.51248358 15.5872624,2.90078209 14.504267,6.47660299 C13.967033,8.2530209 14.3461798,10.1279463 15.1057853,11.7848418 C15.7040239,13.0884239 16.8375284,13.4988716 17.9480743,14.0833493 C19.1911248,14.2153493 20.5542165,14.0991104 20.9976477,13.1731403 C21.5558725,12.0035284 19.0415651,11.3468119 20.9976477,10.0997075 C21.9586339,9.48699104 22.8841982,10.7157075 22.8677991,11.237797 C22.8133541,13.0437672 21.3348128,13.9093194 20.1481752,14.7019761 C18.3593633,15.1544537 16.9182119,14.6855582 15.5459367,13.6256179 C13.6574183,12.1677075 12.6426431,9.56579701 13.0834505,6.91397612 C13.7394138,2.97367761 17.5931982,0.145856716 24.2558174,0.145856716 C29.4274321,0.145856716 34.9506431,1.59785672 39.6211018,3.93576716 C42.4364963,2.15343881 47.9911936,-0.67438209 49.9033266,2.69128955 C50.2418037,3.99224478 49.8738083,4.03887164 48.6032073,4.88734925 C46.4752624,5.82973731 43.782533,5.51845373 41.4282807,5.36806567 L41.0235514,5.35887164 L42.0120881,4.74549851 Z" id="Fill-21" fill="#FEFEFE" fill-rule="evenodd"></path>
                    <path d="M42.0120881,4.74549851 C44.837978,5.16973731 48.7685101,5.46985672 49.752455,3.03015522 C49.752455,3.03015522 49.752455,2.32287164 48.9239734,2.03128955 C46.8799917,1.47505075 43.6690514,2.80424478 42.0120881,4.74549851 L41.1652394,5.45278209 C32.4848771,14.8418567 34.8942303,29.3861552 22.8054826,36.8904537 C17.739478,39.8121851 10.088322,39.8522448 5.46181284,36.1542746 C0.237065138,31.9788716 -0.553370642,26.5038269 0.61686789,22.2529015 C1.39352844,19.4283642 3.61986789,17.1462746 6.36507431,16.6044836 C8.60059725,16.1631701 10.9135239,16.8395881 12.0804826,17.7445433 C13.7190789,19.1584537 14.9522899,20.8271701 14.3120697,22.9391701 C13.9165239,23.8822149 13.2572807,24.5415582 12.3159734,24.9369015 C11.5629275,25.1634687 10.9607532,24.6354687 10.697056,24.0319463 C10.6216202,23.4481254 10.9417303,22.7316478 11.6003174,22.7684239 C12.1841248,23.1841254 12.8623908,22.7684239 13.4081523,22.5812597 C14.0109826,22.0900358 13.8036982,21.0156478 13.5964138,20.4121254 C12.5232578,18.678394 10.946322,17.4969612 8.87413394,17.4214388 C6.30341376,17.3288418 3.71039083,18.1497373 2.20364312,20.6012597 C0.809721101,23.0133791 1.14426239,26.3068119 1.8500789,29.0781552 C2.83402385,32.9383343 6.44051009,36.9088418 10.5087945,37.417797 C15.6686018,38.944006 19.3026385,35.305797 22.4473266,31.8186328 C27.0423495,26.1255582 29.376267,19.5078269 32.3897624,13.1731403 C33.7266156,10.0813194 36.2310835,7.4610209 38.7178404,4.84006567 C34.9696661,1.82311045 30.2296752,1.02257313 25.032478,1.13552836 C20.7765881,1.51248358 15.5872624,2.90078209 14.504267,6.47660299 C13.967033,8.2530209 14.3461798,10.1279463 15.1057853,11.7848418 C15.7040239,13.0884239 16.8375284,13.4988716 17.9480743,14.0833493 C19.1911248,14.2153493 20.5542165,14.0991104 20.9976477,13.1731403 C21.5558725,12.0035284 19.0415651,11.3468119 20.9976477,10.0997075 C21.9586339,9.48699104 22.8841982,10.7157075 22.8677991,11.237797 C22.8133541,13.0437672 21.3348128,13.9093194 20.1481752,14.7019761 C18.3593633,15.1544537 16.9182119,14.6855582 15.5459367,13.6256179 C13.6574183,12.1677075 12.6426431,9.56579701 13.0834505,6.91397612 C13.7394138,2.97367761 17.5931982,0.145856716 24.2558174,0.145856716 C29.4274321,0.145856716 34.9506431,1.59785672 39.6211018,3.93576716 C42.4364963,2.15343881 47.9911936,-0.67438209 49.9033266,2.69128955 C50.2418037,3.99224478 49.8738083,4.03887164 48.6032073,4.88734925 C46.4752624,5.82973731 43.782533,5.51845373 41.4282807,5.36806567 L41.0235514,5.35887164 L42.0120881,4.74549851 Z" id="Stroke-23" stroke="#FEFEFE" stroke-width="0.443"></path>
                    <path d="M66.7382312,70.5261552 L67.0025844,70.4723045 L68.2357954,71.0541552 L66.973722,70.7901552 L66.7382312,70.5261552 L67.0498138,69.7190507 C65.7680615,68.4542149 64.8897266,66.6672896 62.9343,67.5295582 C59.771245,69.1490209 63.6683229,71.7502746 62.4069055,73.8622746 C59.6197174,73.1838866 56.2867679,72.7517672 53.7252312,74.2405433 C53.2476899,74.298991 52.7898275,74.4106328 52.3444284,74.5485433 L52.5963183,75.0693194 C54.1791578,76.7846627 56.6449239,76.1253194 58.2454743,77.8597075 L60.5997266,77.6718866 C60.0723321,78.2182746 59.3376532,78.9925433 58.4147128,78.935409 C57.2103642,78.8579164 56.4186165,77.8025731 55.533722,76.955409 C53.4805569,76.9731403 51.4470706,77.0112299 49.7520615,76.2192299 C50.5621761,75.6734985 51.5985982,75.2387522 52.5963183,75.0693194 L52.3444284,74.5485433 L52.1496073,74.6214388 C50.8160339,75.0351701 49.5336257,75.6498567 48.1475752,75.8232299 L48.4716211,76.5784537 C50.6376119,77.5208418 52.9912083,78.011409 55.533722,78.0304537 L55.891878,78.7659761 C52.9728413,79.1232299 50.5057633,78.3870507 48.4716211,76.5784537 L48.1475752,75.8232299 C47.900933,75.8527821 47.8366486,75.8619761 47.5677037,75.8619761 C47.078355,76.0123642 46.6834651,76.5397075 46.8533596,77.1248418 C47.4929239,78.2182746 48.6238046,78.914394 49.7907633,79.1232299 L49.9140844,78.5807821 C48.8966853,78.6753493 48.169878,77.6902746 47.5677037,77.1248418 C48.4342312,77.4262746 49.0554284,78.2944537 49.921956,78.5761851 L49.9140844,78.5807821 L49.7520615,79.1232299 C50.7123917,81.4979164 53.6124055,80.348006 54.7990431,82.1966627 C54.4225202,82.8198866 53.7882037,82.9912896 53.3729789,83.4825134 L54.0886349,83.476603 L54.1030661,83.3406627 C54.1365202,83.2395284 54.2244193,83.3065134 54.4415431,83.2907522 L54.4415431,84.3631701 C54.3477404,84.1490806 54.0046716,83.7248418 54.0886349,83.476603 L53.8446165,83.4825134 L53.3729789,83.4825134 C53.4110248,84.5378567 54.4940202,85.0750507 54.926956,85.9786925 L55.1755661,85.4585731 L55.1755661,85.2681254 L56.249378,85.2681254 L56.249378,85.4585731 L55.1755661,85.4585731 L55.1860615,85.4618567 L54.926956,85.9786925 C55.8866303,85.9044836 56.6632908,86.156006 57.5114514,85.8158269 L57.5114514,85.628006 C57.3979697,84.572006 56.267745,84.440006 55.3454606,84.5529612 C55.1565431,84.3454388 54.8744789,84.1569612 54.9873046,83.8180955 C55.4300798,83.2946925 55.5107633,83.1311701 56.1273688,83.0339761 L56.5996624,82.9472896 L56.4750294,82.5545731 L56.1503275,82.6576776 L55.5711119,82.7430507 L55.533722,82.5545731 L56.4376394,82.3851403 L56.4750294,82.5545731 L56.480933,82.5624537 L56.5996624,82.9472896 C57.0050477,82.8816179 57.4386394,82.8816179 57.8879743,82.9124836 C58.716456,83.780006 59.483933,85.122991 58.9755615,86.3103343 L59.6958092,86.0036478 L59.4701578,85.9557075 C59.2431945,85.8427522 59.5075477,85.6654388 59.5075477,85.4585731 C59.4878688,85.778394 59.8696394,85.8066328 60.0585569,86.0515881 C60.6797541,85.4467522 61.8414651,85.778394 62.576144,86.0036478 L62.7650615,86.174394 C62.0487495,86.4574388 61.558745,85.628006 60.9572266,86.174394 L60.7689651,86.0036478 C60.5046119,86.2866925 59.9581945,86.2124836 59.6958092,86.0036478 L58.9755615,86.3103343 L58.9991761,86.3103343 C59.5829835,86.5736776 59.771245,87.1929612 60.5997266,86.9092597 C61.6158138,86.174394 62.8588642,87.6250806 63.6683229,86.3622149 C63.4052817,84.572006 61.4839651,85.250394 60.2218917,85.0993493 C59.5075477,84.836006 60.1576073,84.1221552 59.7056486,83.7642448 L59.0936349,83.0819164 C58.9617862,81.536006 57.3225339,81.8945731 56.249378,81.4795284 C55.4202404,81.4407821 54.6481716,81.2713493 54.0840431,80.5745731 C52.709144,80.7820955 51.4280477,80.387409 50.8258734,79.1232299 C52.5956624,80.0465731 55.1565431,79.6328418 57.1526394,79.4804836 C58.3018872,80.3677075 59.5633046,79.4056179 60.5997266,78.935409 C61.4085294,78.3515881 61.6532037,77.5392299 62.0303826,76.7662746 C61.2019009,75.8048418 60.5046119,77.3888418 59.5075477,77.1248418 C58.7538459,76.9934985 58.0381899,76.7662746 57.5114514,76.049797 C56.1929651,75.9565433 54.9873046,75.5986328 53.8957817,74.9563642 C55.9660018,73.2042448 60.128745,73.6357075 62.576144,74.5984537 C62.8778872,74.5413194 63.2918,74.7508119 63.4800615,74.4106328 L63.4800615,74.2405433 C64.7231119,74.6161851 67.0019284,73.9758866 66.9264927,76.049797 C66.4181211,79.5008418 62.6141899,81.1032299 59.8643917,82.1966627 C59.9030936,82.8940955 59.056245,82.4081254 59.0936349,83.1055582 L59.2818963,83.2552896 L59.6820339,83.7563642 C61.7916119,81.3054985 65.758878,81.2529612 67.0957312,77.6718866 C68.2935202,75.4055582 66.0566853,74.1105134 65.2373872,72.4306328 L64.7421349,72.6000657 C62.5577771,73.2607224 63.0654927,70.5445433 62.218644,69.5272896 C62.3878826,68.9618567 62.6706028,68.2828119 63.3108229,68.0752896 C63.9516991,67.9249015 64.3839789,68.3222149 64.9303963,68.4338567 C64.5919193,68.3222149 64.4220248,68.6039463 64.2147404,68.8108119 C64.1399606,69.0557672 64.4410477,69.1687224 64.5722404,69.3368418 C64.9494193,69.3939761 65.2505064,69.3020358 65.4761578,68.9802448 L65.4761578,68.8108119 C66.3984422,68.6788119 66.2298596,71.6012 64.3839789,70.7901552 L64.7421349,72.6000657 L64.7421349,72.5948119 L65.2373872,72.4306328 C65.115378,72.1804239 65.168511,71.966991 65.1186578,71.693797 C66.3243183,70.6772 67.4158413,72.0904537 68.7343275,71.8835881 C69.3752037,71.6767224 69.0354147,70.8847224 68.7343275,70.7901552 C68.1642954,70.6555284 67.5070202,70.1721851 67.0498138,69.7190507 L66.7382312,70.5261552 Z" id="Fill-25" fill="#FEFEFE" fill-rule="evenodd"></path>
                    <path d="M90.2010546,70.5287164 L90.4654078,70.4748657 L91.6973069,71.0567164 L90.4358894,70.7900896 L90.2010546,70.5287164 L90.5126372,69.7209552 C89.2308849,68.4561194 88.3538619,66.6685373 86.3971234,67.5294925 C83.2334124,69.1509254 87.1311463,71.7528358 85.8697289,73.8641791 C83.0831968,73.185791 79.7489353,72.7530149 77.1887106,74.2424478 C76.7111693,74.3008955 76.2533069,74.4118806 75.8079078,74.549791 L76.0597977,75.0705672 C77.6419812,76.7872239 80.1064353,76.1252537 81.7082977,77.8622687 L84.061894,77.6718209 C83.5351555,78.2188657 82.8004766,78.9924776 81.8775362,78.9353433 C80.6725317,78.8604776 79.8820959,77.8051343 78.9965454,76.9566567 C76.9440362,76.9750448 74.909894,77.0131343 73.2155408,76.2211343 C74.0249995,75.6747463 75.0607656,75.2413134 76.0597977,75.0705672 L75.8079078,74.549791 L75.6130867,74.6213731 C74.2795133,75.0377313 72.9964491,75.6524179 71.6103986,75.8244776 L71.9344445,76.5783881 C74.1004353,77.5220896 76.4540317,78.012 78.9965454,78.0310448 L79.3540454,78.7659104 C76.4356647,79.1251343 73.9685867,78.3896119 71.9344445,76.5783881 L71.6103986,75.8244776 C71.3644124,75.8546866 71.2981601,75.8625672 71.0305271,75.8625672 C70.5411784,76.0122985 70.1449766,76.5416119 70.3155271,77.1260896 C70.9557472,78.2188657 72.085972,78.9162985 73.2529307,79.1231642 L73.3762518,78.5807164 C72.3601647,78.6752836 71.6333573,77.6915224 71.0305271,77.1260896 C71.8970546,77.4275224 72.5182518,78.2943881 73.3854353,78.5774328 L73.3762518,78.5807164 L73.2155408,79.1251343 C74.1752151,81.4991642 77.0765408,80.3492537 78.2618665,82.1972537 C77.8859995,82.8198209 77.2510271,82.9938507 76.8364583,83.4831045 L77.5501463,83.4785075 L77.5665454,83.3419104 C77.5999995,83.2414328 77.6878986,83.3064478 77.9043665,83.2906866 L77.9043665,84.3650746 C77.8105638,84.1503284 77.467495,83.7267463 77.5501463,83.4785075 L77.3067839,83.4831045 L76.8364583,83.4831045 C76.8738482,84.537791 77.9574995,85.0749851 78.3891234,85.9812537 L78.6383894,85.4585075 L78.6383894,85.2706866 L79.7128573,85.2706866 L79.7128573,85.4585075 L78.6383894,85.4585075 L78.6495408,85.4631045 L78.3891234,85.9812537 C79.3501096,85.9063881 80.1261142,86.1559403 80.9742748,85.8157612 L80.9742748,85.6279403 C80.8601372,84.5732537 79.7305683,84.4412537 78.807628,84.5548657 C78.6206784,84.3473433 78.3373023,84.1595224 78.450128,83.8186866 C78.8942151,83.2946269 78.9742427,83.1337313 79.5901922,83.0352239 L80.0624858,82.949194 L79.9385087,82.5564776 L79.6138069,82.6576119 L79.0339353,82.7442985 L78.9965454,82.5564776 L79.8998069,82.3870448 L79.9385087,82.5564776 L79.9424445,82.5650149 L80.0624858,82.949194 C80.4678711,82.8835224 80.9014628,82.8835224 81.3501417,82.9137313 C82.1792794,83.7812537 82.9467564,85.1235821 82.4383849,86.3102687 L83.1579766,86.0055522 L82.9329812,85.9582687 C82.7060179,85.844 82.9697151,85.6666866 82.9697151,85.4585075 C82.9506922,85.7796418 83.3324628,85.8065672 83.5213803,86.0521791 C84.1432335,85.4486567 85.3049445,85.7796418 86.0402794,86.0055522 L86.2272289,86.1749851 C85.5122289,86.4586866 85.0215683,85.6279403 84.42005,86.1749851 L84.2317885,86.0055522 C83.9674353,86.288597 83.4210179,86.2124179 83.1579766,86.0055522 L82.4383849,86.3102687 L82.4619995,86.3102687 C83.0458069,86.5755821 83.2334124,87.1928955 84.061894,86.9105075 C85.0786372,86.1749851 86.3223436,87.6269851 87.1311463,86.3634627 C86.868105,84.5732537 84.9481005,85.2522985 83.6853711,85.100597 C82.9697151,84.8359403 83.6204307,84.1240597 83.168472,83.7654925 L82.5564583,83.0818507 C82.4232977,81.5359403 80.7853573,81.8958209 79.7128573,81.4814328 C78.8837197,81.4426866 78.110995,81.2732537 77.5462106,80.5758209 C76.1713115,80.784 74.8915271,80.388 74.2880408,79.1251343 C76.0584858,80.0484776 78.6206784,79.6340896 80.6161188,79.4823881 C81.7647106,80.3676418 83.026128,79.4081791 84.061894,78.9353433 C84.8720087,78.3515224 85.116683,77.5411343 85.493206,76.7688358 C84.6647243,75.8067463 83.9674353,77.391403 82.9697151,77.1260896 C82.2166693,76.9947463 81.5003573,76.7688358 80.9742748,76.0503881 C79.6557885,75.9564776 78.450128,75.5985672 77.358605,74.9576119 C79.4301372,73.2041791 83.5915683,73.6382687 86.0402794,74.6003582 C86.3400546,74.5432239 86.7552794,74.7507463 86.9428849,74.4118806 L86.9428849,74.2424478 C88.1865913,74.6187463 90.4640959,73.9771343 90.3886601,76.0503881 C89.8816005,79.5007761 86.0763573,81.1038209 83.3278711,82.1972537 C83.365261,82.8940299 82.5184124,82.4080597 82.5564583,83.106806 L82.7440638,83.257194 L83.1448573,83.7562985 C85.2537794,81.3060896 89.2217014,81.2555224 90.5585546,77.6718209 C91.7556876,75.4054925 89.5195087,74.1104478 88.6995546,72.4305672 L88.2043023,72.6019701 C86.0206005,73.2606567 86.528972,70.545791 85.6808115,69.5278806 C85.850706,68.961791 86.1327702,68.2847164 86.7736463,68.077194 C87.4138665,67.9248358 87.8474583,68.3221493 88.3932197,68.4344478 C88.0540867,68.3221493 87.8848482,68.6038806 87.6769078,68.8127164 C87.602128,69.0570149 87.9032151,69.1699701 88.0350638,69.339403 C88.4128986,69.3958806 88.7126739,69.3019701 88.9389812,68.982806 L88.9389812,68.8127164 C89.8619216,68.6813731 89.6920271,71.6011343 87.8474583,70.7900896 L88.2043023,72.6019701 L88.2049583,72.5960597 L88.6995546,72.4305672 C88.5782014,72.1829851 88.6319904,71.9688955 88.5821372,71.6957015 C89.7864858,70.677791 90.8786647,72.0930149 92.1978069,71.8835224 C92.8373711,71.6779701 92.4982381,70.8859701 92.1978069,70.7900896 C91.6271188,70.6574328 90.9704995,70.1734328 90.5126372,69.7209552 L90.2010546,70.5287164 Z" id="Fill-27" fill="#FEFEFE" fill-rule="evenodd"></path>
                    <path d="M113.90993,70.5287164 L114.174283,70.4748657 L115.406838,71.0567164 L114.145421,70.7900896 L113.90993,70.5287164 L114.221512,69.7209552 C112.93976,68.4561194 112.062737,66.6685373 110.105999,67.5294925 C106.942944,69.1509254 110.840022,71.7528358 109.578604,73.8641791 C106.792072,73.185791 103.458467,72.7530149 100.898242,74.2424478 C100.419389,74.3008955 99.9621821,74.4118806 99.5161271,74.549791 L99.7686729,75.0705672 C101.350856,76.7872239 103.815967,76.1252537 105.417829,77.8622687 L107.771425,77.6718209 C107.243375,78.2188657 106.510008,78.9924776 105.586411,78.9353433 C104.382063,78.8604776 103.590971,77.8051343 102.705421,76.9566567 C100.652911,76.9750448 98.6187693,77.0131343 96.9237601,76.2211343 C97.7338748,75.6747463 98.7702968,75.2413134 99.7686729,75.0705672 L99.5161271,74.549791 L99.321306,74.6213731 C97.9883885,75.0377313 96.7053243,75.6524179 95.3192739,75.8244776 L95.6433197,76.5783881 C97.8099665,77.5220896 100.162907,78.012 102.705421,78.0310448 L103.062921,78.7659104 C100.145196,79.1251343 97.676806,78.3896119 95.6433197,76.5783881 L95.3192739,75.8244776 C95.0739436,75.8546866 95.0083472,75.8625672 94.7394023,75.8625672 C94.2493977,76.0122985 93.8551638,76.5416119 94.0237463,77.1260896 C94.6646225,78.2188657 95.7955032,78.9162985 96.9624619,79.1231642 L97.085783,78.5807164 C96.0683839,78.6752836 95.3422326,77.6915224 94.7394023,77.1260896 C95.6065858,77.4275224 96.227783,78.2943881 97.0936546,78.5774328 L97.085783,78.5807164 L96.9237601,79.1251343 C97.8847463,81.4991642 100.785416,80.3492537 101.970742,82.1972537 C101.595531,82.8198209 100.960558,82.9938507 100.545333,83.4831045 L101.260333,83.4785075 L101.274765,83.3419104 C101.308875,83.2414328 101.396774,83.3064478 101.613898,83.2906866 L101.613898,84.3650746 C101.520095,84.1503284 101.177682,83.7267463 101.260333,83.4785075 L101.016315,83.4831045 L100.545333,83.4831045 C100.583379,84.537791 101.665719,85.0749851 102.099311,85.9812537 L102.347265,85.4585075 L102.347265,85.2706866 L103.421077,85.2706866 L103.421077,85.4585075 L102.347265,85.4585075 L102.358416,85.4631045 L102.099311,85.9812537 C103.059641,85.9063881 103.835645,86.1559403 104.68315,85.8157612 L104.68315,85.6279403 C104.569668,84.5732537 103.439444,84.4412537 102.517815,84.5548657 C102.329554,84.3473433 102.046833,84.1595224 102.159659,83.8186866 C102.60309,83.2946269 102.683118,83.1337313 103.299067,83.0352239 L103.771361,82.949194 L103.646728,82.5564776 L103.323338,82.6576119 L102.743467,82.7442985 L102.705421,82.5564776 L103.609994,82.3870448 L103.646728,82.5564776 L103.651976,82.5650149 L103.771361,82.949194 C104.17609,82.8835224 104.610338,82.8835224 105.059673,82.9137313 C105.888155,83.7812537 106.655632,85.1235821 106.147916,86.3102687 L106.866852,86.0055522 L106.642512,85.9582687 C106.415549,85.844 106.679902,85.6666866 106.679902,85.4585075 C106.659567,85.7796418 107.04265,85.8065672 107.2296,86.0521791 C107.851453,85.4486567 109.01382,85.7796418 109.748499,86.0055522 L109.93676,86.1749851 C109.220448,86.4586866 108.730444,85.6279403 108.128925,86.1749851 L107.940008,86.0055522 C107.677622,86.288597 107.129893,86.2124179 106.866852,86.0055522 L106.147916,86.3102687 L106.171531,86.3102687 C106.754682,86.5755821 106.942944,87.1928955 107.771425,86.9105075 C108.787512,86.1749851 110.031219,87.6269851 110.840022,86.3634627 C110.57698,84.5732537 108.65632,85.2522985 107.394902,85.100597 C106.679902,84.8359403 107.329306,84.1240597 106.876691,83.7654925 L106.265333,83.0818507 C106.132829,81.5359403 104.494233,81.8958209 103.421077,81.4814328 C102.592595,81.4426866 101.820526,81.2732537 101.255086,80.5758209 C99.8801867,80.784 98.6004023,80.388 97.9969161,79.1251343 C99.766705,80.0484776 102.329554,79.6340896 104.324994,79.4823881 C105.474242,80.3676418 106.735003,79.4081791 107.771425,78.9353433 C108.580228,78.3515224 108.826214,77.5411343 109.202081,76.7688358 C108.374256,75.8067463 107.677622,77.391403 106.679902,77.1260896 C105.9262,76.9947463 105.209889,76.7688358 104.68315,76.0503881 C103.364664,75.9564776 102.159659,75.5985672 101.068136,74.9576119 C103.139012,73.2041791 107.300444,73.6382687 109.748499,74.6003582 C110.04893,74.5432239 110.464811,74.7507463 110.65176,74.4118806 L110.65176,74.2424478 C111.894811,74.6187463 114.174283,73.9771343 114.098191,76.0503881 C113.58982,79.5007761 109.785889,81.1038209 107.03609,82.1972537 C107.074136,82.8940299 106.227944,82.4080597 106.265333,83.106806 L106.454251,83.257194 L106.853077,83.7562985 C108.963311,81.3060896 112.930577,81.2555224 114.268086,77.6718209 C115.465219,75.4054925 113.22904,74.1104478 112.409086,72.4305672 L111.913178,72.6019701 C109.729476,73.2606567 110.237847,70.545791 109.390343,69.5278806 C109.559581,68.961791 109.842957,68.2847164 110.482522,68.077194 C111.122742,67.9248358 111.556989,68.3221493 112.102751,68.4344478 C111.763618,68.3221493 111.593067,68.6038806 111.386439,68.8127164 C111.311659,69.0570149 111.612746,69.1699701 111.744595,69.339403 C112.121118,69.3958806 112.422205,69.3019701 112.647856,68.982806 L112.647856,68.8127164 C113.570141,68.6813731 113.402214,71.6011343 111.556989,70.7900896 L111.913178,72.6019701 L111.913833,72.5960597 L112.409086,72.4305672 C112.287077,72.1829851 112.341522,71.9688955 112.2897,71.6957015 C113.496017,70.677791 114.588196,72.0930149 115.906026,71.8835224 C116.546902,71.6779701 116.207113,70.8859701 115.906026,70.7900896 C115.33665,70.6574328 114.680031,70.1734328 114.221512,69.7209552 L113.90993,70.5287164 Z" id="Fill-29" fill="#FEFEFE" fill-rule="evenodd"></path>
                    <path d="M139.705818,48.8705373 L140.672052,48.8705373 L140.672052,48.7201493 L140.48707,48.7201493 C140.358501,48.7201493 140.345382,48.7142388 140.345382,48.1901791 L140.345382,47.7403284 L140.577593,47.7403284 C140.692387,47.9787164 141.17452,48.8705373 141.297841,48.8705373 L141.856066,48.8705373 L141.856066,48.7201493 L141.726841,48.7201493 C141.583841,48.5993134 141.311616,48.2164478 140.971827,47.6588955 C141.284722,47.5912537 141.508405,47.3791343 141.508405,47.0310746 C141.508405,46.6836716 141.249956,46.3428358 140.672052,46.3428358 L139.616607,46.3428358 L139.616607,46.4938806 L139.794373,46.4938806 C139.923598,46.4938806 139.949836,46.5070149 139.949836,47.0310746 L139.949836,48.6597313 C139.949836,48.7076716 139.937373,48.7201493 139.883584,48.7201493 L139.705818,48.7201493 L139.705818,48.8705373 Z M141.101052,47.0862388 C141.101052,47.4546567 140.801933,47.5912537 140.529052,47.5912537 L140.345382,47.5912537 L140.345382,46.5621791 C140.345382,46.4938806 140.433281,46.4938806 140.515277,46.4938806 C140.964611,46.4938806 141.101052,46.9017015 141.101052,47.0862388 Z M142.631414,47.6923881 C142.631414,48.8022388 141.759639,49.6960299 140.651061,49.6960299 C139.570033,49.6960299 138.671364,48.8022388 138.671364,47.6923881 C138.671364,46.5825373 139.570033,45.6815224 140.651061,45.6815224 C141.759639,45.6815224 142.631414,46.5825373 142.631414,47.6923881 Z M142.971859,47.6923881 C142.971859,46.4255821 141.943309,45.3978209 140.651061,45.3978209 C139.358813,45.3978209 138.330919,46.4255821 138.330919,47.6923881 C138.330919,48.9585373 139.358813,49.9817015 140.651061,49.9817015 C141.943309,49.9817015 142.971859,48.9585373 142.971859,47.6923881 Z" id="Fill-31" fill="#FEFEFE" fill-rule="evenodd"></path>
                    <path d="M112.63454,86.7182866 L113.237371,86.7182866 L113.237371,86.6250328 L113.122577,86.6250328 C113.041238,86.6250328 113.034022,86.6210925 113.034022,86.2940478 L113.034022,86.0129731 L113.178334,86.0129731 C113.25049,86.1620478 113.551577,86.7182866 113.628325,86.7182866 L113.976641,86.7182866 L113.976641,86.6250328 L113.895958,86.6250328 C113.806747,86.548197 113.636852,86.3104657 113.424976,85.9630627 C113.619797,85.9190627 113.760829,85.7877194 113.760829,85.5703463 C113.760829,85.3536299 113.599462,85.1408537 113.237371,85.1408537 L112.579439,85.1408537 L112.579439,85.2354209 L112.690297,85.2354209 C112.770325,85.2354209 112.78738,85.2439582 112.78738,85.5703463 L112.78738,86.5869433 C112.78738,86.6171522 112.779508,86.6250328 112.745398,86.6250328 L112.63454,86.6250328 L112.63454,86.7182866 Z M113.505004,85.605809 C113.505004,85.8343463 113.317398,85.9190627 113.148816,85.9190627 L113.034022,85.9190627 L113.034022,85.2774507 C113.034022,85.2354209 113.089779,85.2354209 113.140288,85.2354209 C113.42104,85.2354209 113.505004,85.4902269 113.505004,85.605809 Z M114.460742,85.9821075 C114.460742,86.6769134 113.916949,87.2318388 113.224907,87.2318388 C112.550577,87.2318388 111.989072,86.6769134 111.989072,85.9821075 C111.989072,85.2905851 112.550577,84.7290925 113.224907,84.7290925 C113.916949,84.7290925 114.460742,85.2905851 114.460742,85.9821075 Z M114.672618,85.9821075 C114.672618,85.1927343 114.032398,84.549809 113.224907,84.549809 C112.418072,84.549809 111.77654,85.1927343 111.77654,85.9821075 C111.77654,86.772794 112.418072,87.4124358 113.224907,87.4124358 C114.032398,87.4124358 114.672618,86.772794 114.672618,85.9821075 Z" id="Fill-33" fill="#FEFEFE" fill-rule="evenodd"></path>
                    <path d="M66.0848261,61.1429254 C66.0848261,60.9649552 66.2553766,60.9649552 66.4888995,60.9419701 C67.0740188,60.9419701 67.0740188,60.5518806 67.0740188,60.0317612 C67.0740188,58.5882985 67.052372,56.6378507 67.052372,55.1832239 C67.052372,55.0288955 67.052372,54.9704478 67.0202298,54.9704478 C66.9775922,54.9704478 66.9356106,55.1477612 66.8713261,55.2896119 C66.1701014,57.1343284 65.4787161,58.9908657 64.7774913,60.8237612 C64.7138628,61.0010746 64.6922161,61.1074627 64.5334729,61.1074627 C64.3629225,61.1074627 64.3307803,61.0010746 64.2671518,60.8112836 C63.6505463,59.0026866 63.0234454,57.2052537 62.3858491,55.3841791 C62.3320601,55.2305075 62.3005739,55.1004776 62.2690876,55.1004776 C62.225794,55.1004776 62.225794,55.2186866 62.2159546,55.396 C62.1516702,56.945194 61.9712803,58.9908657 61.9712803,60.0317612 C61.9712803,60.7410149 62.1516702,60.9419701 62.6620096,60.953791 C62.8430555,60.9649552 63.0024546,60.9892537 63.0024546,61.1547463 C63.0024546,61.3084179 62.8745417,61.3320597 62.7472849,61.3320597 C62.4606289,61.3320597 62.0454041,61.2847761 61.7692436,61.2847761 C61.4714362,61.2847761 61.046372,61.3320597 60.7702115,61.3320597 C60.65345,61.3320597 60.5576794,61.2959403 60.5576794,61.1547463 C60.5576794,60.9892537 60.7275739,60.9767761 60.9191151,60.953791 C61.4714362,60.9301493 61.5035784,60.6694328 61.5350647,60.0317612 C61.6203399,58.3525373 61.780395,55.963403 61.8223766,55.0059104 C61.8545188,54.3787463 61.8118812,54.3321194 61.2700555,54.3196418 C61.1316472,54.3084776 60.9715922,54.2848358 60.9715922,54.0957015 C60.9715922,53.9183881 61.1211518,53.9183881 61.3441794,53.9183881 C61.5888537,53.9183881 61.9286427,53.9413731 62.1838124,53.9413731 C62.3963445,53.9413731 62.7256381,53.9183881 62.9283307,53.9183881 C63.0555876,53.9183881 63.1087206,54.0595821 63.1618537,54.2257313 C63.6721931,55.6324179 64.1720372,57.0397612 64.6600739,58.4346269 C64.7565005,58.6946866 64.8837573,59.1445373 64.9368904,59.1445373 C64.978872,59.1445373 65.1074408,58.730806 65.2340417,58.422806 C65.8296564,56.9333731 66.3504913,55.514209 66.9139638,54.1193433 C66.9677528,53.9650149 67.0740188,53.9183881 67.2117711,53.9183881 C67.4354546,53.9183881 67.7221106,53.9413731 67.9451381,53.9413731 C68.1576702,53.9413731 68.4449821,53.9183881 68.7316381,53.9183881 C68.9225234,53.9183881 69.0825784,53.930209 69.0825784,54.0957015 C69.0825784,54.3084776 68.9343307,54.3084776 68.6148766,54.3196418 C68.2219546,54.3321194 68.2219546,54.4976119 68.2219546,55.2423284 C68.231794,56.8269851 68.2422894,58.3991642 68.2540968,59.9956418 C68.2540968,60.847403 68.3603628,60.9419701 68.8483995,60.9649552 C69.0084546,60.9767761 69.1350555,61.0010746 69.1350555,61.1547463 C69.1350555,61.3084179 69.0084546,61.3320597 68.8805417,61.3320597 C68.4869638,61.3320597 68.0835463,61.2847761 67.6801289,61.2847761 C67.2222665,61.2847761 66.7762115,61.3320597 66.319005,61.3320597 C66.2337298,61.3320597 66.0848261,61.3208955 66.0848261,61.1547463 L66.0848261,61.1429254 Z" id="Fill-36" fill="#FEFEFE" fill-rule="evenodd"></path>
                    <path d="M66.0848261,61.1429254 C66.0848261,60.9649552 66.2553766,60.9649552 66.4888995,60.9419701 C67.0740188,60.9419701 67.0740188,60.5518806 67.0740188,60.0317612 C67.0740188,58.5882985 67.052372,56.6378507 67.052372,55.1832239 C67.052372,55.0288955 67.052372,54.9704478 67.0202298,54.9704478 C66.9775922,54.9704478 66.9356106,55.1477612 66.8713261,55.2896119 C66.1701014,57.1343284 65.4787161,58.9908657 64.7774913,60.8237612 C64.7138628,61.0010746 64.6922161,61.1074627 64.5334729,61.1074627 C64.3629225,61.1074627 64.3307803,61.0010746 64.2671518,60.8112836 C63.6505463,59.0026866 63.0234454,57.2052537 62.3858491,55.3841791 C62.3320601,55.2305075 62.3005739,55.1004776 62.2690876,55.1004776 C62.225794,55.1004776 62.225794,55.2186866 62.2159546,55.396 C62.1516702,56.945194 61.9712803,58.9908657 61.9712803,60.0317612 C61.9712803,60.7410149 62.1516702,60.9419701 62.6620096,60.953791 C62.8430555,60.9649552 63.0024546,60.9892537 63.0024546,61.1547463 C63.0024546,61.3084179 62.8745417,61.3320597 62.7472849,61.3320597 C62.4606289,61.3320597 62.0454041,61.2847761 61.7692436,61.2847761 C61.4714362,61.2847761 61.046372,61.3320597 60.7702115,61.3320597 C60.65345,61.3320597 60.5576794,61.2959403 60.5576794,61.1547463 C60.5576794,60.9892537 60.7275739,60.9767761 60.9191151,60.953791 C61.4714362,60.9301493 61.5035784,60.6694328 61.5350647,60.0317612 C61.6203399,58.3525373 61.780395,55.963403 61.8223766,55.0059104 C61.8545188,54.3787463 61.8118812,54.3321194 61.2700555,54.3196418 C61.1316472,54.3084776 60.9715922,54.2848358 60.9715922,54.0957015 C60.9715922,53.9183881 61.1211518,53.9183881 61.3441794,53.9183881 C61.5888537,53.9183881 61.9286427,53.9413731 62.1838124,53.9413731 C62.3963445,53.9413731 62.7256381,53.9183881 62.9283307,53.9183881 C63.0555876,53.9183881 63.1087206,54.0595821 63.1618537,54.2257313 C63.6721931,55.6324179 64.1720372,57.0397612 64.6600739,58.4346269 C64.7565005,58.6946866 64.8837573,59.1445373 64.9368904,59.1445373 C64.978872,59.1445373 65.1074408,58.730806 65.2340417,58.422806 C65.8296564,56.9333731 66.3504913,55.514209 66.9139638,54.1193433 C66.9677528,53.9650149 67.0740188,53.9183881 67.2117711,53.9183881 C67.4354546,53.9183881 67.7221106,53.9413731 67.9451381,53.9413731 C68.1576702,53.9413731 68.4449821,53.9183881 68.7316381,53.9183881 C68.9225234,53.9183881 69.0825784,53.930209 69.0825784,54.0957015 C69.0825784,54.3084776 68.9343307,54.3084776 68.6148766,54.3196418 C68.2219546,54.3321194 68.2219546,54.4976119 68.2219546,55.2423284 C68.231794,56.8269851 68.2422894,58.3991642 68.2540968,59.9956418 C68.2540968,60.847403 68.3603628,60.9419701 68.8483995,60.9649552 C69.0084546,60.9767761 69.1350555,61.0010746 69.1350555,61.1547463 C69.1350555,61.3084179 69.0084546,61.3320597 68.8805417,61.3320597 C68.4869638,61.3320597 68.0835463,61.2847761 67.6801289,61.2847761 C67.2222665,61.2847761 66.7762115,61.3320597 66.319005,61.3320597 C66.2337298,61.3320597 66.0848261,61.3208955 66.0848261,61.1547463 L66.0848261,61.1429254 Z" id="Stroke-38" stroke="#FEFEFE" stroke-width="0.25"></path>
                    <path d="M70.5894573,55.3370269 C70.5894573,54.4741015 70.5894573,54.3197731 69.951205,54.308609 C69.8127968,54.308609 69.6324069,54.308609 69.6324069,54.1312955 C69.6324069,53.9651463 69.7498243,53.9185194 69.8560904,53.9185194 C70.1538977,53.9185194 70.4615445,53.9296836 70.7803427,53.9415045 C71.0991408,53.9539821 71.418595,53.9651463 71.7052509,53.9651463 C72.2155904,53.9651463 72.7265858,53.9539821 73.2251179,53.9415045 C73.724306,53.9415045 74.2359573,53.9296836 74.7351454,53.9296836 C74.9365261,53.9296836 74.9483335,53.9887881 74.9483335,54.3434149 C74.9483335,54.7105194 74.9365261,55.0533254 74.9365261,55.4197731 C74.9365261,55.5727881 74.9260307,55.7389373 74.777783,55.7389373 C74.6918518,55.7389373 74.617728,55.6680119 74.5652509,55.549803 C74.5009665,55.4322507 74.4484894,55.2897433 74.384205,55.1597134 C74.1178839,54.5568478 73.8745216,54.3558925 72.6944436,54.3558925 C72.1841041,54.3558925 71.9820674,54.3670567 71.8758014,54.449803 C71.7695353,54.5325493 71.7695353,54.6750567 71.7695353,54.9226388 L71.7695353,56.6025194 C71.7695353,57.1226388 71.7905261,57.1226388 72.5140537,57.1226388 C73.4173151,57.1226388 73.5439161,57.1226388 73.6396867,56.5545791 C73.6823243,56.3542806 73.7039711,56.0462806 73.884361,56.0462806 C74.0116179,56.0462806 74.0549115,56.1415045 74.0549115,56.2708776 C74.0549115,56.5788776 74.0227693,56.9453254 74.0227693,57.2644896 C74.0227693,57.6309373 74.0549115,57.9744 74.0549115,58.3283701 C74.0549115,58.5181612 74.0116179,58.6002507 73.884361,58.6002507 C73.7144665,58.6002507 73.6934757,58.3053851 73.6298472,58.0683104 C73.5117739,57.6072955 73.2887463,57.5600119 72.2693794,57.5600119 C71.86465,57.5600119 71.7695353,57.5711761 71.7695353,57.9619224 L71.7695353,59.8893851 C71.7695353,60.8586985 72.1408106,60.8948179 72.9712601,60.8948179 C73.884361,60.8948179 74.3625583,60.7523104 74.7134986,59.8539224 C74.8099252,59.6056836 74.8722417,59.3929075 75.0427922,59.3929075 C75.1287234,59.3929075 75.170705,59.4283701 75.1812005,59.5104597 C75.2133427,59.6175045 75.1916959,59.7475343 75.1812005,59.8539224 C75.1392188,60.2558328 75.0749344,60.6584 75.0427922,61.0714746 C75.0224573,61.2730866 75.0008106,61.2849075 74.8722417,61.2849075 L71.3228243,61.2849075 C71.0145216,61.2849075 70.7488564,61.2960716 70.5041821,61.3085493 C70.2601638,61.3203701 70.0476317,61.332191 69.8560904,61.332191 C69.7498243,61.332191 69.6324069,61.2960716 69.6324069,61.1194149 C69.6324069,60.9539224 69.8239482,60.9421015 69.951205,60.9421015 C70.5894573,60.9302806 70.5894573,60.7759522 70.5894573,59.8893851 L70.5894573,55.3370269 Z" id="Fill-40" fill="#FEFEFE" fill-rule="evenodd"></path>
                    <path d="M70.5894573,55.3370269 C70.5894573,54.4741015 70.5894573,54.3197731 69.951205,54.308609 C69.8127968,54.308609 69.6324069,54.308609 69.6324069,54.1312955 C69.6324069,53.9651463 69.7498243,53.9185194 69.8560904,53.9185194 C70.1538977,53.9185194 70.4615445,53.9296836 70.7803427,53.9415045 C71.0991408,53.9539821 71.418595,53.9651463 71.7052509,53.9651463 C72.2155904,53.9651463 72.7265858,53.9539821 73.2251179,53.9415045 C73.724306,53.9415045 74.2359573,53.9296836 74.7351454,53.9296836 C74.9365261,53.9296836 74.9483335,53.9887881 74.9483335,54.3434149 C74.9483335,54.7105194 74.9365261,55.0533254 74.9365261,55.4197731 C74.9365261,55.5727881 74.9260307,55.7389373 74.777783,55.7389373 C74.6918518,55.7389373 74.617728,55.6680119 74.5652509,55.549803 C74.5009665,55.4322507 74.4484894,55.2897433 74.384205,55.1597134 C74.1178839,54.5568478 73.8745216,54.3558925 72.6944436,54.3558925 C72.1841041,54.3558925 71.9820674,54.3670567 71.8758014,54.449803 C71.7695353,54.5325493 71.7695353,54.6750567 71.7695353,54.9226388 L71.7695353,56.6025194 C71.7695353,57.1226388 71.7905261,57.1226388 72.5140537,57.1226388 C73.4173151,57.1226388 73.5439161,57.1226388 73.6396867,56.5545791 C73.6823243,56.3542806 73.7039711,56.0462806 73.884361,56.0462806 C74.0116179,56.0462806 74.0549115,56.1415045 74.0549115,56.2708776 C74.0549115,56.5788776 74.0227693,56.9453254 74.0227693,57.2644896 C74.0227693,57.6309373 74.0549115,57.9744 74.0549115,58.3283701 C74.0549115,58.5181612 74.0116179,58.6002507 73.884361,58.6002507 C73.7144665,58.6002507 73.6934757,58.3053851 73.6298472,58.0683104 C73.5117739,57.6072955 73.2887463,57.5600119 72.2693794,57.5600119 C71.86465,57.5600119 71.7695353,57.5711761 71.7695353,57.9619224 L71.7695353,59.8893851 C71.7695353,60.8586985 72.1408106,60.8948179 72.9712601,60.8948179 C73.884361,60.8948179 74.3625583,60.7523104 74.7134986,59.8539224 C74.8099252,59.6056836 74.8722417,59.3929075 75.0427922,59.3929075 C75.1287234,59.3929075 75.170705,59.4283701 75.1812005,59.5104597 C75.2133427,59.6175045 75.1916959,59.7475343 75.1812005,59.8539224 C75.1392188,60.2558328 75.0749344,60.6584 75.0427922,61.0714746 C75.0224573,61.2730866 75.0008106,61.2849075 74.8722417,61.2849075 L71.3228243,61.2849075 C71.0145216,61.2849075 70.7488564,61.2960716 70.5041821,61.3085493 C70.2601638,61.3203701 70.0476317,61.332191 69.8560904,61.332191 C69.7498243,61.332191 69.6324069,61.2960716 69.6324069,61.1194149 C69.6324069,60.9539224 69.8239482,60.9421015 69.951205,60.9421015 C70.5894573,60.9302806 70.5894573,60.7759522 70.5894573,59.8893851 L70.5894573,55.3370269 Z" id="Stroke-42" stroke="#FEFEFE" stroke-width="0.25"></path>
                    <path d="M81.1643073,61.1429254 C81.1643073,60.9649552 81.3335459,60.9649552 81.5677248,60.9419701 C82.1521881,60.9419701 82.1521881,60.5518806 82.1521881,60.0317612 C82.1521881,58.5882985 82.1318532,56.6378507 82.1318532,55.1832239 C82.1318532,55.0288955 82.1318532,54.9704478 82.099711,54.9704478 C82.0570734,54.9704478 82.0137798,55.1477612 81.9508073,55.2896119 C81.2489266,57.1343284 80.5581972,58.9908657 79.8563165,60.8237612 C79.7920321,61.0010746 79.7716972,61.1074627 79.6116422,61.1074627 C79.4424037,61.1074627 79.4102615,61.0010746 79.346633,60.8112836 C78.7300275,59.0026866 78.1022706,57.2052537 77.4640183,55.3841791 C77.4115413,55.2305075 77.3793991,55.1004776 77.3479128,55.1004776 C77.3052752,55.1004776 77.3052752,55.2186866 77.2954358,55.396 C77.2311514,56.945194 77.0507615,58.9908657 77.0507615,60.0317612 C77.0507615,60.7410149 77.2311514,60.9419701 77.7408349,60.953791 C77.9218807,60.9649552 78.0819358,60.9892537 78.0819358,61.1547463 C78.0819358,61.3084179 77.953367,61.3320597 77.8267661,61.3320597 C77.5401101,61.3320597 77.1248853,61.2847761 76.8480688,61.2847761 C76.5509174,61.2847761 76.1251972,61.3320597 75.8483807,61.3320597 C75.7322752,61.3320597 75.6358486,61.2959403 75.6358486,61.1547463 C75.6358486,60.9892537 75.8063991,60.9767761 75.9972844,60.953791 C76.5509174,60.9301493 76.5830596,60.6694328 76.6145459,60.0317612 C76.6991651,58.3525373 76.8598761,55.963403 76.9018578,55.0059104 C76.934,54.3787463 76.8900505,54.3321194 76.3482248,54.3196418 C76.2098165,54.3084776 76.0510734,54.2848358 76.0510734,54.0957015 C76.0510734,53.9183881 76.1999771,53.9183881 76.4223486,53.9183881 C76.6676789,53.9183881 77.0081239,53.9413731 77.2632936,53.9413731 C77.4758257,53.9413731 77.8051193,53.9183881 78.0078119,53.9183881 C78.1344128,53.9183881 78.1882018,54.0595821 78.2406789,54.2257313 C78.7503624,55.6324179 79.2502064,57.0397612 79.739555,58.4346269 C79.8359817,58.6946866 79.9625826,59.1445373 80.0163716,59.1445373 C80.0583532,59.1445373 80.1856101,58.730806 80.3135229,58.422806 C80.9091376,56.9333731 81.4293165,55.514209 81.993445,54.1193433 C82.045922,53.9650149 82.1521881,53.9183881 82.2905963,53.9183881 C82.5136239,53.9183881 82.8002798,53.9413731 83.0246193,53.9413731 C83.2371514,53.9413731 83.5244633,53.9183881 83.8111193,53.9183881 C84.0020046,53.9183881 84.1607477,53.930209 84.1607477,54.0957015 C84.1607477,54.3084776 84.0125,54.3084776 83.6930459,54.3196418 C83.3001239,54.3321194 83.3001239,54.4976119 83.3001239,55.2423284 C83.3112752,56.8269851 83.3217706,58.3991642 83.3322661,59.9956418 C83.3322661,60.847403 83.4385321,60.9419701 83.9278807,60.9649552 C84.0866239,60.9767761 84.2145367,61.0010746 84.2145367,61.1547463 C84.2145367,61.3084179 84.0866239,61.3320597 83.9600229,61.3320597 C83.566445,61.3320597 83.1630275,61.2847761 82.7582982,61.2847761 C82.3017477,61.2847761 81.8550367,61.3320597 81.3971743,61.3320597 C81.313211,61.3320597 81.1643073,61.3208955 81.1643073,61.1547463 L81.1643073,61.1429254 Z" id="Fill-44" fill="#FEFEFE" fill-rule="evenodd"></path>
                    <path d="M81.1643073,61.1429254 C81.1643073,60.9649552 81.3335459,60.9649552 81.5677248,60.9419701 C82.1521881,60.9419701 82.1521881,60.5518806 82.1521881,60.0317612 C82.1521881,58.5882985 82.1318532,56.6378507 82.1318532,55.1832239 C82.1318532,55.0288955 82.1318532,54.9704478 82.099711,54.9704478 C82.0570734,54.9704478 82.0137798,55.1477612 81.9508073,55.2896119 C81.2489266,57.1343284 80.5581972,58.9908657 79.8563165,60.8237612 C79.7920321,61.0010746 79.7716972,61.1074627 79.6116422,61.1074627 C79.4424037,61.1074627 79.4102615,61.0010746 79.346633,60.8112836 C78.7300275,59.0026866 78.1022706,57.2052537 77.4640183,55.3841791 C77.4115413,55.2305075 77.3793991,55.1004776 77.3479128,55.1004776 C77.3052752,55.1004776 77.3052752,55.2186866 77.2954358,55.396 C77.2311514,56.945194 77.0507615,58.9908657 77.0507615,60.0317612 C77.0507615,60.7410149 77.2311514,60.9419701 77.7408349,60.953791 C77.9218807,60.9649552 78.0819358,60.9892537 78.0819358,61.1547463 C78.0819358,61.3084179 77.953367,61.3320597 77.8267661,61.3320597 C77.5401101,61.3320597 77.1248853,61.2847761 76.8480688,61.2847761 C76.5509174,61.2847761 76.1251972,61.3320597 75.8483807,61.3320597 C75.7322752,61.3320597 75.6358486,61.2959403 75.6358486,61.1547463 C75.6358486,60.9892537 75.8063991,60.9767761 75.9972844,60.953791 C76.5509174,60.9301493 76.5830596,60.6694328 76.6145459,60.0317612 C76.6991651,58.3525373 76.8598761,55.963403 76.9018578,55.0059104 C76.934,54.3787463 76.8900505,54.3321194 76.3482248,54.3196418 C76.2098165,54.3084776 76.0510734,54.2848358 76.0510734,54.0957015 C76.0510734,53.9183881 76.1999771,53.9183881 76.4223486,53.9183881 C76.6676789,53.9183881 77.0081239,53.9413731 77.2632936,53.9413731 C77.4758257,53.9413731 77.8051193,53.9183881 78.0078119,53.9183881 C78.1344128,53.9183881 78.1882018,54.0595821 78.2406789,54.2257313 C78.7503624,55.6324179 79.2502064,57.0397612 79.739555,58.4346269 C79.8359817,58.6946866 79.9625826,59.1445373 80.0163716,59.1445373 C80.0583532,59.1445373 80.1856101,58.730806 80.3135229,58.422806 C80.9091376,56.9333731 81.4293165,55.514209 81.993445,54.1193433 C82.045922,53.9650149 82.1521881,53.9183881 82.2905963,53.9183881 C82.5136239,53.9183881 82.8002798,53.9413731 83.0246193,53.9413731 C83.2371514,53.9413731 83.5244633,53.9183881 83.8111193,53.9183881 C84.0020046,53.9183881 84.1607477,53.930209 84.1607477,54.0957015 C84.1607477,54.3084776 84.0125,54.3084776 83.6930459,54.3196418 C83.3001239,54.3321194 83.3001239,54.4976119 83.3001239,55.2423284 C83.3112752,56.8269851 83.3217706,58.3991642 83.3322661,59.9956418 C83.3322661,60.847403 83.4385321,60.9419701 83.9278807,60.9649552 C84.0866239,60.9767761 84.2145367,61.0010746 84.2145367,61.1547463 C84.2145367,61.3084179 84.0866239,61.3320597 83.9600229,61.3320597 C83.566445,61.3320597 83.1630275,61.2847761 82.7582982,61.2847761 C82.3017477,61.2847761 81.8550367,61.3320597 81.3971743,61.3320597 C81.313211,61.3320597 81.1643073,61.3208955 81.1643073,61.1547463 L81.1643073,61.1429254 Z" id="Stroke-46" stroke="#FEFEFE" stroke-width="0.25"></path>
                    <path d="M86.8373404,56.9210925 C86.8373404,57.2993612 86.8373404,57.3827642 86.9973954,57.4773313 C87.1882807,57.6073612 87.5392211,57.7019284 87.772744,57.7019284 C88.559244,57.7019284 89.0912303,56.9335701 89.0912303,56.0463463 C89.0912303,55.7271821 89.0269459,54.2607343 87.5293817,54.2607343 C86.8694826,54.2607343 86.8373404,54.5214507 86.8373404,55.1716 L86.8373404,56.9210925 Z M86.8373404,59.9249134 C86.8373404,60.7996597 86.8373404,60.9539881 87.5070789,60.9539881 C87.6343358,60.9539881 87.7943908,60.9769731 87.7943908,61.1431224 C87.7943908,61.3086149 87.6776294,61.3322567 87.5818587,61.3322567 C87.2420697,61.3322567 86.8491477,61.2849731 86.2430376,61.2849731 C85.7215468,61.2849731 85.2754917,61.3322567 84.9245514,61.3322567 C84.8182853,61.3322567 84.7015239,61.3086149 84.7015239,61.1431224 C84.7015239,60.9651522 84.8707624,60.9539881 85.0196661,60.9539881 C85.6474229,60.9539881 85.6572624,60.8114806 85.6572624,59.9249134 L85.6572624,55.3370925 C85.6572624,54.4262269 85.6474229,54.3198388 85.0196661,54.3080179 C84.8924092,54.3080179 84.7120193,54.3080179 84.7120193,54.1188836 C84.7120193,53.953391 84.8182853,53.9185851 84.9350468,53.9185851 C85.306322,53.9185851 85.7956706,53.9652119 86.3053541,53.9652119 C86.826845,53.9652119 87.4434505,53.9185851 88.1236844,53.9185851 C90.2070239,53.9185851 90.3552716,55.6680776 90.3552716,55.9990627 C90.3552716,57.3118388 89.3359046,58.1747642 88.219455,58.1747642 C87.9327991,58.1747642 87.7406018,58.0920179 87.4532899,57.9856299 C87.3371844,57.9383463 87.1141569,57.8431224 86.9973954,57.8431224 C86.8373404,57.8431224 86.8373404,57.9619881 86.8373404,58.1629433 L86.8373404,59.9249134 Z" id="Fill-48" fill="#FEFEFE" fill-rule="evenodd"></path>
                    <path d="M86.8373404,56.9210925 C86.8373404,57.2993612 86.8373404,57.3827642 86.9973954,57.4773313 C87.1882807,57.6073612 87.5392211,57.7019284 87.772744,57.7019284 C88.559244,57.7019284 89.0912303,56.9335701 89.0912303,56.0463463 C89.0912303,55.7271821 89.0269459,54.2607343 87.5293817,54.2607343 C86.8694826,54.2607343 86.8373404,54.5214507 86.8373404,55.1716 L86.8373404,56.9210925 Z M86.8373404,59.9249134 C86.8373404,60.7996597 86.8373404,60.9539881 87.5070789,60.9539881 C87.6343358,60.9539881 87.7943908,60.9769731 87.7943908,61.1431224 C87.7943908,61.3086149 87.6776294,61.3322567 87.5818587,61.3322567 C87.2420697,61.3322567 86.8491477,61.2849731 86.2430376,61.2849731 C85.7215468,61.2849731 85.2754917,61.3322567 84.9245514,61.3322567 C84.8182853,61.3322567 84.7015239,61.3086149 84.7015239,61.1431224 C84.7015239,60.9651522 84.8707624,60.9539881 85.0196661,60.9539881 C85.6474229,60.9539881 85.6572624,60.8114806 85.6572624,59.9249134 L85.6572624,55.3370925 C85.6572624,54.4262269 85.6474229,54.3198388 85.0196661,54.3080179 C84.8924092,54.3080179 84.7120193,54.3080179 84.7120193,54.1188836 C84.7120193,53.953391 84.8182853,53.9185851 84.9350468,53.9185851 C85.306322,53.9185851 85.7956706,53.9652119 86.3053541,53.9652119 C86.826845,53.9652119 87.4434505,53.9185851 88.1236844,53.9185851 C90.2070239,53.9185851 90.3552716,55.6680776 90.3552716,55.9990627 C90.3552716,57.3118388 89.3359046,58.1747642 88.219455,58.1747642 C87.9327991,58.1747642 87.7406018,58.0920179 87.4532899,57.9856299 C87.3371844,57.9383463 87.1141569,57.8431224 86.9973954,57.8431224 C86.8373404,57.8431224 86.8373404,57.9619881 86.8373404,58.1629433 L86.8373404,59.9249134 Z" id="Stroke-50" stroke="#FEFEFE" stroke-width="0.25"></path>
                    <path d="M93.5430564,57.5957373 C93.2137628,57.5957373 93.1717812,57.6075582 93.1717812,57.996991 L93.1717812,59.9362746 C93.1717812,60.7525731 93.1816206,60.9298866 93.7772353,60.9535284 C93.926139,60.9653493 94.0848821,60.988991 94.0848821,61.1426627 C94.0848821,61.3081552 93.9464739,61.331797 93.8297124,61.331797 C93.5010748,61.331797 93.0648592,61.2845134 92.6502904,61.2845134 C92.2042353,61.2845134 91.6407628,61.331797 91.2688317,61.331797 C91.1625656,61.331797 91.0444922,61.3081552 91.0444922,61.1426627 C91.0444922,60.9653493 91.2052032,60.9535284 91.3534509,60.9535284 C91.9917032,60.9535284 91.9917032,60.8110209 91.9917032,59.9251104 L91.9917032,55.3372896 C91.9917032,54.4500657 91.9917032,54.3200358 91.3534509,54.3082149 C91.2255381,54.3082149 91.0444922,54.3082149 91.0444922,54.1190806 C91.0444922,53.9535881 91.1514142,53.9181254 91.2688317,53.9181254 C91.6086206,53.9181254 92.1183041,53.965409 92.5656711,53.965409 C93.08585,53.965409 93.5010748,53.9181254 93.8520151,53.9181254 C93.9582812,53.9181254 94.0848821,53.9535881 94.0848821,54.1190806 C94.0848821,54.2970507 93.9044922,54.3082149 93.7877307,54.3082149 C93.1717812,54.3318567 93.1717812,54.4625433 93.1717812,55.3372896 L93.1717812,56.8149015 C93.1717812,57.1340657 93.1921161,57.1340657 93.5430564,57.1340657 L96.1478867,57.1340657 C96.4666849,57.1340657 96.4988271,57.1110806 96.4988271,56.7078567 L96.4988271,55.3484537 C96.4870197,54.4375881 96.4870197,54.3436776 95.892717,54.3200358 C95.7543087,54.2970507 95.5942537,54.2970507 95.5942537,54.1190806 C95.5942537,53.9890507 95.6683775,53.9181254 95.8284326,53.9181254 C96.1800289,53.9181254 96.5617995,53.965409 97.0826344,53.965409 C97.6887445,53.965409 98.0606757,53.9181254 98.4116161,53.9181254 C98.5178821,53.9181254 98.6346436,53.9535881 98.6346436,54.1190806 C98.6346436,54.3082149 98.4437583,54.3082149 98.3151894,54.3082149 C97.678905,54.3082149 97.678905,54.4500657 97.678905,55.3372896 L97.678905,59.9251104 C97.678905,60.7998567 97.678905,60.9535284 98.3473317,60.9535284 C98.4759005,60.9535284 98.6346436,60.9653493 98.6346436,61.1426627 C98.6346436,61.3081552 98.5178821,61.331797 98.4116161,61.331797 C98.0396849,61.331797 97.6041252,61.2845134 97.0511482,61.2845134 C96.6050931,61.2845134 96.2220106,61.331797 95.838928,61.331797 C95.7005197,61.331797 95.5942537,61.2733493 95.5942537,61.1308418 C95.5942537,60.9653493 95.7438133,60.9535284 95.8809096,60.9423642 C96.4988271,60.9180657 96.4988271,60.7762149 96.4988271,60.0544836 L96.4988271,57.996991 C96.4988271,57.6075582 96.4870197,57.5957373 96.1373913,57.5957373 L93.5430564,57.5957373 Z" id="Fill-52" fill="#FEFEFE" fill-rule="evenodd"></path>
                    <path d="M93.5430564,57.5957373 C93.2137628,57.5957373 93.1717812,57.6075582 93.1717812,57.996991 L93.1717812,59.9362746 C93.1717812,60.7525731 93.1816206,60.9298866 93.7772353,60.9535284 C93.926139,60.9653493 94.0848821,60.988991 94.0848821,61.1426627 C94.0848821,61.3081552 93.9464739,61.331797 93.8297124,61.331797 C93.5010748,61.331797 93.0648592,61.2845134 92.6502904,61.2845134 C92.2042353,61.2845134 91.6407628,61.331797 91.2688317,61.331797 C91.1625656,61.331797 91.0444922,61.3081552 91.0444922,61.1426627 C91.0444922,60.9653493 91.2052032,60.9535284 91.3534509,60.9535284 C91.9917032,60.9535284 91.9917032,60.8110209 91.9917032,59.9251104 L91.9917032,55.3372896 C91.9917032,54.4500657 91.9917032,54.3200358 91.3534509,54.3082149 C91.2255381,54.3082149 91.0444922,54.3082149 91.0444922,54.1190806 C91.0444922,53.9535881 91.1514142,53.9181254 91.2688317,53.9181254 C91.6086206,53.9181254 92.1183041,53.965409 92.5656711,53.965409 C93.08585,53.965409 93.5010748,53.9181254 93.8520151,53.9181254 C93.9582812,53.9181254 94.0848821,53.9535881 94.0848821,54.1190806 C94.0848821,54.2970507 93.9044922,54.3082149 93.7877307,54.3082149 C93.1717812,54.3318567 93.1717812,54.4625433 93.1717812,55.3372896 L93.1717812,56.8149015 C93.1717812,57.1340657 93.1921161,57.1340657 93.5430564,57.1340657 L96.1478867,57.1340657 C96.4666849,57.1340657 96.4988271,57.1110806 96.4988271,56.7078567 L96.4988271,55.3484537 C96.4870197,54.4375881 96.4870197,54.3436776 95.892717,54.3200358 C95.7543087,54.2970507 95.5942537,54.2970507 95.5942537,54.1190806 C95.5942537,53.9890507 95.6683775,53.9181254 95.8284326,53.9181254 C96.1800289,53.9181254 96.5617995,53.965409 97.0826344,53.965409 C97.6887445,53.965409 98.0606757,53.9181254 98.4116161,53.9181254 C98.5178821,53.9181254 98.6346436,53.9535881 98.6346436,54.1190806 C98.6346436,54.3082149 98.4437583,54.3082149 98.3151894,54.3082149 C97.678905,54.3082149 97.678905,54.4500657 97.678905,55.3372896 L97.678905,59.9251104 C97.678905,60.7998567 97.678905,60.9535284 98.3473317,60.9535284 C98.4759005,60.9535284 98.6346436,60.9653493 98.6346436,61.1426627 C98.6346436,61.3081552 98.5178821,61.331797 98.4116161,61.331797 C98.0396849,61.331797 97.6041252,61.2845134 97.0511482,61.2845134 C96.6050931,61.2845134 96.2220106,61.331797 95.838928,61.331797 C95.7005197,61.331797 95.5942537,61.2733493 95.5942537,61.1308418 C95.5942537,60.9653493 95.7438133,60.9535284 95.8809096,60.9423642 C96.4988271,60.9180657 96.4988271,60.7762149 96.4988271,60.0544836 L96.4988271,57.996991 C96.4988271,57.6075582 96.4870197,57.5957373 96.1373913,57.5957373 L93.5430564,57.5957373 Z" id="Stroke-54" stroke="#FEFEFE" stroke-width="0.25"></path>
                    <path d="M101.353087,59.9250448 C101.353087,60.799791 101.364894,60.9534627 102.033321,60.9534627 C102.161233,60.9534627 102.320633,60.9771045 102.320633,61.142597 C102.320633,61.3080896 102.203871,61.3323881 102.097605,61.3323881 C101.768311,61.3323881 101.439018,61.2844478 100.822412,61.2844478 C100.194656,61.2844478 99.8115729,61.3323881 99.4507931,61.3323881 C99.3438711,61.3323881 99.2277656,61.3080896 99.2277656,61.142597 C99.2277656,60.9652836 99.3865087,60.9534627 99.5360683,60.9534627 C100.173009,60.9534627 100.173009,60.8116119 100.173009,59.9250448 L100.173009,55.3372239 C100.173009,54.45 100.173009,54.3199701 99.5360683,54.3081493 C99.4081555,54.3081493 99.2277656,54.3081493 99.2277656,54.1190149 C99.2277656,53.9535224 99.3340317,53.9187164 99.4507931,53.9187164 C99.8017335,53.9187164 100.25894,53.9653433 100.790926,53.9653433 C101.332752,53.9653433 101.746665,53.9187164 102.097605,53.9187164 C102.203871,53.9187164 102.320633,53.9535224 102.320633,54.1190149 C102.320633,54.3081493 102.119252,54.3081493 102.001178,54.3081493 C101.364894,54.3199701 101.353087,54.45 101.353087,55.3372239 L101.353087,59.9250448 Z" id="Fill-56" fill="#FEFEFE" fill-rule="evenodd"></path>
                    <path d="M101.353087,59.9250448 C101.353087,60.799791 101.364894,60.9534627 102.033321,60.9534627 C102.161233,60.9534627 102.320633,60.9771045 102.320633,61.142597 C102.320633,61.3080896 102.203871,61.3323881 102.097605,61.3323881 C101.768311,61.3323881 101.439018,61.2844478 100.822412,61.2844478 C100.194656,61.2844478 99.8115729,61.3323881 99.4507931,61.3323881 C99.3438711,61.3323881 99.2277656,61.3080896 99.2277656,61.142597 C99.2277656,60.9652836 99.3865087,60.9534627 99.5360683,60.9534627 C100.173009,60.9534627 100.173009,60.8116119 100.173009,59.9250448 L100.173009,55.3372239 C100.173009,54.45 100.173009,54.3199701 99.5360683,54.3081493 C99.4081555,54.3081493 99.2277656,54.3081493 99.2277656,54.1190149 C99.2277656,53.9535224 99.3340317,53.9187164 99.4507931,53.9187164 C99.8017335,53.9187164 100.25894,53.9653433 100.790926,53.9653433 C101.332752,53.9653433 101.746665,53.9187164 102.097605,53.9187164 C102.203871,53.9187164 102.320633,53.9535224 102.320633,54.1190149 C102.320633,54.3081493 102.119252,54.3081493 102.001178,54.3081493 C101.364894,54.3199701 101.353087,54.45 101.353087,55.3372239 L101.353087,59.9250448 Z" id="Stroke-58" stroke="#FEFEFE" stroke-width="0.25"></path>
                    <path d="M107.709043,59.061791 C107.709043,60.2445373 106.7638,61.4384478 105.083878,61.4384478 C104.636511,61.4384478 103.882153,61.3084179 103.340328,60.9892537 C103.191424,60.8946866 103.149442,60.7048955 103.149442,60.4802985 C103.149442,60.1256716 103.159282,59.747403 103.169777,59.4164179 C103.181584,59.2627463 103.212415,59.061791 103.404612,59.061791 C103.617144,59.061791 103.649286,59.5346269 103.72341,59.8892537 C103.871658,60.6346269 104.36035,61.1074627 105.14685,61.1074627 C105.922855,61.1074627 106.625392,60.5518806 106.625392,59.7119403 C106.625392,58.8253731 106.051424,58.3755224 105.274763,58.0090746 C105.104213,57.9381493 104.934974,57.8435821 104.753272,57.7614925 C103.998915,57.406209 103.276043,56.8860896 103.276043,55.8215522 C103.276043,54.3321194 104.648318,53.7404179 105.562075,53.7404179 C105.997635,53.7404179 106.613584,53.812 107.102933,53.9886567 C107.293818,54.071403 107.293818,54.1902687 107.293818,54.4030448 C107.305626,54.7103881 107.325961,55.0177313 107.337768,55.3257313 C107.337768,55.4551045 107.293818,55.5851343 107.145571,55.5851343 C106.996667,55.5851343 106.94419,55.4078209 106.890401,55.2666269 C106.699516,54.5212537 106.326928,54.0838806 105.583722,54.0838806 C104.94547,54.0838806 104.33936,54.4621493 104.33936,55.2305075 C104.33936,56.1525373 105.339048,56.5196418 106.145883,56.8979104 C106.900896,57.2643582 107.709043,57.8317612 107.709043,59.0499701 L107.709043,59.061791 Z" id="Fill-60" fill="#FEFEFE" fill-rule="evenodd"></path>
                    <path d="M107.709043,59.061791 C107.709043,60.2445373 106.7638,61.4384478 105.083878,61.4384478 C104.636511,61.4384478 103.882153,61.3084179 103.340328,60.9892537 C103.191424,60.8946866 103.149442,60.7048955 103.149442,60.4802985 C103.149442,60.1256716 103.159282,59.747403 103.169777,59.4164179 C103.181584,59.2627463 103.212415,59.061791 103.404612,59.061791 C103.617144,59.061791 103.649286,59.5346269 103.72341,59.8892537 C103.871658,60.6346269 104.36035,61.1074627 105.14685,61.1074627 C105.922855,61.1074627 106.625392,60.5518806 106.625392,59.7119403 C106.625392,58.8253731 106.051424,58.3755224 105.274763,58.0090746 C105.104213,57.9381493 104.934974,57.8435821 104.753272,57.7614925 C103.998915,57.406209 103.276043,56.8860896 103.276043,55.8215522 C103.276043,54.3321194 104.648318,53.7404179 105.562075,53.7404179 C105.997635,53.7404179 106.613584,53.812 107.102933,53.9886567 C107.293818,54.071403 107.293818,54.1902687 107.293818,54.4030448 C107.305626,54.7103881 107.325961,55.0177313 107.337768,55.3257313 C107.337768,55.4551045 107.293818,55.5851343 107.145571,55.5851343 C106.996667,55.5851343 106.94419,55.4078209 106.890401,55.2666269 C106.699516,54.5212537 106.326928,54.0838806 105.583722,54.0838806 C104.94547,54.0838806 104.33936,54.4621493 104.33936,55.2305075 C104.33936,56.1525373 105.339048,56.5196418 106.145883,56.8979104 C106.900896,57.2643582 107.709043,57.8317612 107.709043,59.0499701 L107.709043,59.061791 Z" id="Stroke-62" stroke="#FEFEFE" stroke-width="0.25"></path>
                </g>
            </g>
        </g>
    </g>
</svg>