<?xml version="1.0" encoding="UTF-8" standalone="no"?>
<!DOCTYPE svg PUBLIC "-//W3C//DTD SVG 1.1//EN" "http://www.w3.org/Graphics/SVG/1.1/DTD/svg11.dtd">
<svg width="100%" height="100%" viewBox="0 0 513 71" version="1.1" xmlns="http://www.w3.org/2000/svg" xmlns:xlink="http://www.w3.org/1999/xlink" xml:space="preserve" xmlns:serif="http://www.serif.com/" style="fill-rule:evenodd;clip-rule:evenodd;stroke-linejoin:round;stroke-miterlimit:2;">
    <g transform="matrix(1,0,0,1,-74.0511,-80.3)">
        <path d="M176.5,146.1C169.3,146.1 162.7,145.3 156.9,139.5L164.4,132C168.2,135.8 173.1,136.3 176.7,136.3C180.7,136.3 184.8,135 184.8,131.5C184.8,129.2 183.6,127.6 179.9,127.3L172.7,126.6C164.4,125.8 159.3,122.2 159.3,113.7C159.3,104.2 167.7,99 177.1,99C184.3,99 190.3,100.2 194.7,104.4L187.6,111.6C184.9,109.2 180.9,108.5 176.9,108.5C172.3,108.5 170.4,110.6 170.4,112.9C170.4,114.6 171.1,116.5 175.2,116.9L182.4,117.6C191.5,118.5 196.1,123.3 196.1,131.1C196.1,141.3 187.4,146.1 176.5,146.1Z" style="fill:white;fill-rule:nonzero;"/>
    </g>
    <g transform="matrix(1,0,0,1,-74.0511,-80.3)">
        <path d="M216.1,145.6C206.7,145.6 202.8,139 202.8,132.4L202.8,109.6L197.9,109.6L197.9,100.9L202.8,100.9L202.8,87.3L214.3,87.3L214.3,100.9L222.4,100.9L222.4,109.6L214.3,109.6L214.3,131.7C214.3,134.3 215.5,135.9 218.3,135.9L222.5,135.9L222.5,145.6L216.1,145.6Z" style="fill:white;fill-rule:nonzero;"/>
    </g>
    <g transform="matrix(1,0,0,1,-74.0511,-80.3)">
        <path d="M227.5,91.7L227.5,82.3L239.3,82.3L239.3,91.7L227.5,91.7ZM227.7,145.6L227.7,99.6L239.2,99.6L239.2,145.6L227.7,145.6Z" style="fill:white;fill-rule:nonzero;"/>
    </g>
    <g transform="matrix(1,0,0,1,-74.0511,-80.3)">
        <path d="M265.1,146.1C255.9,146.1 244.5,141.2 244.5,122.5C244.5,103.9 255.9,99 265.1,99C271.5,99 276.2,100.9 280.3,105.2L272.5,113C270.1,110.4 268.1,109.4 265.1,109.4C262.4,109.4 260.2,110.4 258.6,112.4C256.8,114.6 256,117.7 256,122.6C256,127.5 256.8,130.6 258.6,132.9C260.3,134.9 262.4,135.9 265.1,135.9C268.1,135.9 270.1,134.8 272.5,132.3L280.3,140C276.2,144.1 271.5,146.1 265.1,146.1Z" style="fill:white;fill-rule:nonzero;"/>
    </g>
    <g transform="matrix(1,0,0,1,-74.0511,-80.3)">
        <path d="M312,145.6L300.7,126.4L295.8,131.9L295.8,145.6L284.3,145.6L284.3,82.7L295.8,82.7L295.8,118.4L311.1,99.6L325,99.6L308.6,118.2L326.3,145.7L312,145.6Z" style="fill:white;fill-rule:nonzero;"/>
    </g>
    <g transform="matrix(1,0,0,1,-74.0511,-80.3)">
        <path d="M335.8,126.1C335.8,132 339.4,136.3 345.9,136.3C350.9,136.3 353.4,134.9 356.3,132L363.3,138.8C358.6,143.5 354.1,146 345.8,146C334.9,146 324.5,141.1 324.5,122.4C324.5,107.4 332.6,98.9 344.6,98.9C357.4,98.9 364.7,108.3 364.7,120.9L364.7,126L335.8,126.1ZM352.3,113.3C351.1,110.6 348.5,108.5 344.6,108.5C340.7,108.5 338.1,110.5 336.9,113.3C336.2,115 335.9,116.2 335.8,118.2L353.3,118.2C353.2,116.2 353,115 352.3,113.3Z" style="fill:white;fill-rule:nonzero;"/>
    </g>
    <g transform="matrix(1,0,0,1,-74.0511,-80.3)">
        <path d="M395.1,112.1C393.3,110.3 391.8,109.4 389,109.4C385.5,109.4 381.6,112.1 381.6,117.9L381.6,145.6L370.1,145.6L370.1,99.6L381.3,99.6L381.3,104C383.5,101.3 387.9,99.1 392.9,99.1C397.4,99.1 400.6,100.2 403.8,103.4L395.1,112.1Z" style="fill:white;fill-rule:nonzero;"/>
    </g>
    <g transform="matrix(1,0,0,1,-74.0511,-80.3)">
        <path d="M121.5,150.7C120.8,151 119.9,150.9 119,151C118.2,151 117.1,151 116.6,150.6C116.3,150.4 116.3,149.9 116.3,149.6C116.3,149.3 116.4,148.8 116.4,148.5C116.5,148.1 116.6,147.5 116.4,147.2C116.2,146.9 115.5,147 115.1,146.8C114.7,146.6 114.6,146 114.5,145.4C114.5,145.2 114.3,145 114.3,144.9C114.2,144 114.5,142.7 114.7,141.8C114.9,140.8 115.2,139.9 115.4,138.9C115.7,137.5 115.7,135.9 115.6,134.4C115.6,133.6 115.4,133 115.6,132.4C115.7,131.8 116,131.3 116.1,130.7L116.1,130.1C116.1,129.9 116.2,129.8 116.2,129.6C116.2,129.2 116.1,128.7 116.1,128.2C116,126.9 116.1,125 116.2,123.9C116.2,123.5 116.4,123.1 116.1,122.9C114.7,122.9 113.5,123.1 112.2,123.3C108.8,123.7 104.4,123.8 101.1,123.1C100.8,123 100.5,123 100.2,123C97.8,122.5 95.7,121.4 94,120.1C93.7,119.9 93.4,119.7 93.1,119.4C92.8,119.2 92.5,118.9 92.2,118.7C90.9,118.1 89.1,118.8 88.5,119.7C88.3,120 88.1,120.5 87.9,120.9C87.7,121.3 87.5,121.7 87.4,122.1C86.5,124.1 85.5,126.1 84.6,128.1C84.1,129.3 83.5,130.6 83.1,131.9C82.3,134.7 83,138.4 83.7,141.1C83.8,141.3 83.9,141.6 84,141.9C84.2,142.5 84.6,143.4 85.1,143.8C85.4,144 85.8,144.2 86.1,144.4C86.5,144.7 86.7,145.3 87,145.9C87.1,146.1 87.3,146.4 87.4,146.7C87.7,147.3 87.9,147.8 87.2,148.2C86.7,148.5 85.9,148.5 85.2,148.6C84.9,148.7 85,149.1 84.8,149.3C84.7,149.4 84.2,149.6 84,149.7C83.1,150 81.5,150 80.8,149.7C80.4,149.6 80,149.3 79.9,149C79.7,148.4 80.2,147.7 79.8,147.3C79.6,147.1 79.2,147.1 78.9,147C78.4,146.8 78,146.3 77.7,145.8C77.2,144.4 77.5,142.3 77.4,140.6C77.4,140.1 77.3,139.6 77.3,139C77.3,138 77,137 76.9,136C76.8,135.5 76.7,135.1 76.6,134.7C76.4,134 76.3,133.2 76.1,132.5C75.9,131.7 75.9,130.9 76.1,130.3C76.2,130.1 76.4,129.9 76.5,129.7C76.7,129.3 76.7,128.9 76.7,128.5C76.6,128.3 76.1,128.5 76,128.3C75.7,126.1 75.4,124 75.2,121.7C75.1,120.9 75.1,120.2 75.1,119.4C75,117.9 75.1,116.3 74.9,114.8C74.8,114.1 74.7,113.4 74.6,112.7C74.3,110.7 73.8,108.2 74.2,106.1C74.5,104.8 74.9,103.7 75.7,102.7C76.2,102 76.8,101.4 77.4,100.7C78,100.1 78.7,99.5 79.4,99C79.9,98.7 80.4,98.3 80.9,98C82,97.5 83.5,97 85.1,96.9C86.7,96.8 88.5,96.8 90,97.1C91.5,97.4 93,97.6 94.5,97.9C95.9,98.2 97.3,98.6 98.7,98.9C98.9,98.9 99,99.1 99.2,99.1C99.6,99.2 100.1,99.2 100.6,99.4C101.9,99.7 103.5,99.9 105.1,99.9C106.8,99.9 108.3,99.9 109.7,99.5C109.9,99.4 110.1,99.3 110.3,99.3C110.5,99.2 110.8,99.2 111,99.2C111.1,99.2 111.3,99 111.4,98.9C112.2,98.5 112.9,98.1 113.6,97.6C114.2,97.2 114.6,96.9 115.4,96.6C115.7,96.5 116.1,96.3 116.4,96.2C117.1,96 117.9,95.8 118.4,95.4C119.3,94.9 119.9,94.1 120.6,93.4C121.3,92.8 122.1,92.1 122.9,91.5C124.5,90.2 126.1,89.1 127.6,87.9C128.4,87.3 129.2,86.7 130.1,86.2C131.8,85.2 133.6,84.1 136.1,83.9C137.1,83.8 138.1,83.8 139.1,83.9C139.4,83.9 139.7,84.1 140,84C140.3,83.9 140.5,83.5 140.6,83.2C141,82.5 141.2,82.1 141.6,81.3C141.8,80.8 141.7,80.3 142.2,80.3C142.7,80.3 142.6,81.6 142.6,82.1C142.6,82.7 142.5,83.5 142.6,83.9C142.7,84.2 143.1,84.6 143.5,84.6C143.8,84.6 144,84.4 144.2,84.2C144.5,84 144.7,84 144.9,83.8C145.3,83.5 145.8,83 146.2,82.6C146.5,82.3 147.1,81.4 147.6,81.5C148.6,81.6 147.6,83.1 147.4,83.5C146.9,84.6 146.4,85.5 145.8,86.5C145.6,86.9 145,87.5 145,88C145,88.3 145.3,88.5 145.4,88.9C145.5,89.1 145.5,89.2 145.6,89.4C145.9,90.2 146.2,91.3 146.5,92.2C146.7,93 146.9,93.8 147.2,94.5C147.5,95.2 147.9,95.9 148.2,96.7C148.3,96.9 148.3,97.1 148.4,97.3C149,98.9 149.6,100.7 150.4,102.3C150.7,102.9 151.1,103.7 151.1,104.6C151.1,105.6 150.6,106.1 150.1,106.9C149.9,107.3 149.5,107.9 149.1,108C148.8,108.1 148.5,108 148.2,108C147.8,108.1 147.5,108.3 147.2,108.3C146.3,108.4 145.4,107.7 145.2,107C145.1,106.8 145.2,106.5 145.1,106.2C144.9,105.1 144.3,104.6 143.6,103.8C143.1,103.3 142.7,103 142.1,102.7C141.2,102.2 140.3,102 139.3,101.5C139,101.3 138.5,101.1 138.2,101.2C137.7,101.3 137.2,102.1 136.8,102.6C134.4,105.8 132.2,109.1 129.9,112.2C128.3,114.3 126.7,116.4 125.4,118.7C125.1,119.3 124.9,120 124.6,120.7C124.4,121.4 124.2,122.1 124,122.9C123.1,125.5 122.8,128.7 122,131.4C121.9,131.7 121.9,132 121.8,132.3C121.4,133.7 121,135.3 120.6,136.8C120.3,137.9 120.2,139.4 120.1,140.8C120.1,142.2 120,144.1 120.5,144.9C120.8,145.4 121.7,145.5 122,146C122.2,146.3 122.4,147 122.7,147.4C122.9,147.7 123.4,148.3 123.3,148.8C123.3,149.1 123,149.4 122.7,149.5C122.4,149.6 122,149.6 121.7,149.7C121.7,150.1 121.8,150.5 121.5,150.7Z" style="fill:white;fill-rule:nonzero;"/>
    </g>
    <g transform="matrix(1,0,0,1,-74.0511,-80.3)">
        <path d="M455.4,99C449.7,99 445.5,100.8 441.6,104.8C438.7,100.8 434.5,99 429.4,99C425.2,99 420.9,100.7 417.9,103.8L417.9,99.6L406.7,99.6L406.7,145.6L418.2,145.6L418.2,117.8C418.2,111.5 422.3,109.4 425.9,109.4C429.5,109.4 433.5,111.5 433.5,117.8L433.5,145.6L445,145.6L445,117.5C445,111.5 449.2,109.4 452.7,109.4C456.3,109.4 460.3,111.5 460.3,117.8L460.3,145.6L471.8,145.6L471.8,116.2C471.8,111.2 470.5,106.8 466.8,103.1C464.1,100.5 460,99 455.4,99Z" style="fill:white;fill-rule:nonzero;"/>
    </g>
    <g transform="matrix(1,0,0,1,-74.0511,-80.3)">
        <path d="M505.3,127.4C505.3,133.7 501.2,135.8 497.6,135.8C494,135.8 490,133.7 490,127.4L490,99.5L478.5,99.5L478.5,129C478.5,134 479.5,138.4 483.2,142.1C485.8,144.7 489.5,146.2 494.1,146.2C498.3,146.2 502.6,144.6 505.6,141.4L505.6,145.6L516.8,145.6L516.8,99.6L505.3,99.6L505.3,127.4Z" style="fill:white;fill-rule:nonzero;"/>
    </g>
    <g transform="matrix(1,0,0,1,-74.0511,-80.3)">
        <path d="M535.6,131.7L535.6,82.7L524.1,82.7L524.1,132.4C524.1,138.9 528.1,145.6 537.5,145.6L544,145.6L544,135.9L539.6,135.9C536.7,135.9 535.6,134.5 535.6,131.7Z" style="fill:white;fill-rule:nonzero;"/>
    </g>
    <g transform="matrix(1,0,0,1,-74.0511,-80.3)">
        <path d="M586.2,121C586.2,108.4 579,99 566.1,99C554.2,99 546,107.5 546,122.5C546,141.1 556.4,146.1 567.3,146.1C575.6,146.1 580.1,143.5 584.8,138.9L577.8,132.1C574.9,135 572.4,136.4 567.4,136.4C560.9,136.4 557.3,132.1 557.3,126.2L586.1,126.2L586.2,121ZM557.4,118.3C557.5,116.3 557.8,115 558.5,113.4C559.7,110.7 562.3,108.6 566.2,108.6C570.1,108.6 572.6,110.6 573.9,113.4C574.6,115.1 574.9,116.3 575,118.3L557.4,118.3Z" style="fill:white;fill-rule:nonzero;"/>
    </g>
</svg>
