<?xml version="1.0" encoding="UTF-8" standalone="no"?>
<!DOCTYPE svg PUBLIC "-//W3C//DTD SVG 1.1//EN" "http://www.w3.org/Graphics/SVG/1.1/DTD/svg11.dtd">
<svg width="100%" height="100%" viewBox="0 0 171 171" version="1.1" xmlns="http://www.w3.org/2000/svg" xmlns:xlink="http://www.w3.org/1999/xlink" xml:space="preserve" xmlns:serif="http://www.serif.com/" style="fill-rule:evenodd;clip-rule:evenodd;stroke-linejoin:round;stroke-miterlimit:2;">
    <g transform="matrix(1,0,0,1,-214.389,-137.327)">
        <g transform="matrix(0.316777,0,0,0.316777,218.461,141.399)">
            <circle cx="256" cy="256" r="256"/>
        </g>
        <g transform="matrix(0.316777,0,0,0.316777,218.461,141.399)">
            <path d="M256,-12.853C107.616,-12.853 -12.853,107.616 -12.853,256C-12.853,404.384 107.616,524.853 256,524.853C404.384,524.853 524.853,404.384 524.853,256C524.853,107.616 404.384,-12.853 256,-12.853ZM256,12.853C390.196,12.853 499.147,121.804 499.147,256C499.147,390.196 390.196,499.147 256,499.147C121.804,499.147 12.853,390.196 12.853,256C12.853,121.804 121.804,12.853 256,12.853Z" style="fill:white;"/>
        </g>
        <g transform="matrix(0.316777,0,0,0.316777,220.397,134.104)">
            <path d="M402.818,364.011L96.507,364.011L79.258,394.273L420.521,394.273L402.818,364.011Z" style="fill:rgb(66,234,212);"/>
        </g>
        <g transform="matrix(0.316777,0,0,0.316777,218.461,131.399)">
            <path d="M254.573,91.652L399.831,346.762L109.314,346.762L254.573,91.652ZM254.573,153.768L349.099,321.661L160.047,321.661L254.573,153.768Z" style="fill:rgb(243,21,53);"/>
        </g>
    </g>
</svg>
