<?xml version="1.0" encoding="UTF-8" standalone="no"?>
<!DOCTYPE svg PUBLIC "-//W3C//DTD SVG 1.1//EN" "http://www.w3.org/Graphics/SVG/1.1/DTD/svg11.dtd">
<svg width="100%" height="100%" viewBox="0 0 9060 6095" version="1.1" xmlns="http://www.w3.org/2000/svg" xmlns:xlink="http://www.w3.org/1999/xlink" xml:space="preserve" xmlns:serif="http://www.serif.com/" style="fill-rule:evenodd;clip-rule:evenodd;stroke-linejoin:round;stroke-miterlimit:2;">
    <filter id="blur" width="100%" height="100%">
  	    <feGaussianBlur stdDeviation="40" result="blur" />
    </filter>
    <g transform="matrix(1,0,0,1,0,-3379)" filter="url(#blur)" opacity="0.5">
        <g id="Artboard3" transform="matrix(1,0,0,1,0,-0.0993607)">
            <rect x="0" y="3379.1" width="9059.1" height="6094.94" style="fill:none;"/>
            <clipPath id="_clip1">
                <rect x="0" y="3379.1" width="9059.1" height="6094.94"/>
            </clipPath>
            <g clip-path="url(#_clip1)">
                <g transform="matrix(1,0,0,1,0,0.0993607)">
                    <rect x="0" y="3379.1" width="9059.1" height="6094.94"/>
                </g>
                <g transform="matrix(1.95935,0,0,1.95935,-1994.79,-7233.96)">
                    <path d="M713.226,6439.3C994.105,6388.57 1210.3,6428.11 1413.31,6457.29C1605.9,6484.97 1786.79,6503.35 1998.56,6430.16C2314.25,6321.06 2699.59,6007.23 3295.99,5209.38C3300.27,5203.66 3299.09,5195.55 3293.38,5191.28C3287.66,5187 3279.54,5188.17 3275.27,5193.89C2683.92,5984.98 2303.13,6297.53 1990.11,6405.71C1782.74,6477.38 1605.58,6458.79 1416.99,6431.68C1211.59,6402.15 992.824,6362.51 708.628,6413.84C701.602,6415.11 696.928,6421.84 698.197,6428.87C699.466,6435.89 706.2,6440.57 713.226,6439.3Z" style="fill:rgb(66,234,212);"/>
                </g>
                <g transform="matrix(1.95935,0,0,1.95935,-2227.11,-7755.72)">
                    <path d="M713.226,6439.3C994.105,6388.57 1210.3,6428.11 1413.31,6457.29C1605.9,6484.97 1786.79,6503.35 1998.56,6430.16C2314.25,6321.06 2699.59,6007.23 3295.99,5209.38C3300.27,5203.66 3299.09,5195.55 3293.38,5191.28C3287.66,5187 3279.54,5188.17 3275.27,5193.89C2683.92,5984.98 2303.13,6297.53 1990.11,6405.71C1782.74,6477.38 1605.58,6458.79 1416.99,6431.68C1211.59,6402.15 992.824,6362.51 708.628,6413.84C701.602,6415.11 696.928,6421.84 698.197,6428.87C699.466,6435.89 706.2,6440.57 713.226,6439.3Z" style="fill:rgb(66,234,212);"/>
                </g>
                <g transform="matrix(1.95935,0,0,1.95935,-2432.77,-8227.97)">
                    <path d="M713.226,6439.3C994.105,6388.57 1210.3,6428.11 1413.31,6457.29C1605.9,6484.97 1786.79,6503.35 1998.56,6430.16C2314.25,6321.06 2699.59,6007.23 3295.99,5209.38C3300.27,5203.66 3299.09,5195.55 3293.38,5191.28C3287.66,5187 3279.54,5188.17 3275.27,5193.89C2683.92,5984.98 2303.13,6297.53 1990.11,6405.71C1782.74,6477.38 1605.58,6458.79 1416.99,6431.68C1211.59,6402.15 992.824,6362.51 708.628,6413.84C701.602,6415.11 696.928,6421.84 698.197,6428.87C699.466,6435.89 706.2,6440.57 713.226,6439.3Z" style="fill:rgb(66,234,212);"/>
                </g>
            </g>
        </g>
    </g>
</svg>
